<svg t="1648731807141" class="icon" viewBox="0 0 1024 1024" version="1.1" xmlns="http://www.w3.org/2000/svg" p-id="1045" width="1600" height="1600"><path d="M867.232 360.9728l-110.432-64a19.0848 19.0848 0 0 0-19.1424 0L636.8 355.424l-100.8576-58.4512a19.0848 19.0848 0 0 0-19.1424 0l-110.432 64a19.2256 19.2256 0 0 0-9.568 16.64V505.6c0 6.8672 3.648 13.2096 9.568 16.64l100.864 58.4512v116.896c0 6.8608 3.648 13.2096 9.568 16.64l110.432 64a19.0592 19.0592 0 0 0 19.136 0l110.432-64a19.2256 19.2256 0 0 0 9.568-16.64V580.6912l100.864-58.4512A19.2256 19.2256 0 0 0 876.8 505.6V377.6064c0-6.8608-3.648-13.2032-9.568-16.64z" fill="#4ba9f2" p-id="1046"></path><path d="M665.3184 132.0704C616.5824 112.384 564.9984 102.4 512 102.4c-109.408 0-212.2688 42.6048-289.632 119.968C145.0048 299.7312 102.4 402.592 102.4 512a410.4 410.4 0 0 0 84.9856 249.7728c-12.928 20.96-10.3232 48.8576 7.8272 67.008a54.2272 54.2272 0 0 0 38.4704 15.9104 54.2336 54.2336 0 0 0 38.464-15.904c21.2096-21.2096 21.2096-55.7248 0-76.9344-16.3648-16.3712-40.6528-20.096-60.64-11.2A378.3296 378.3296 0 0 1 134.4 512c0-208.2112 169.3888-377.6 377.6-377.6 48.8704 0 96.4288 9.1968 141.3312 27.3344a16 16 0 1 0 11.9872-29.6704z m86.528 63.1488c21.216-21.216 55.7248-21.216 76.9408 0 18.1504 18.1504 20.7552 46.048 7.8272 67.008A410.3872 410.3872 0 0 1 921.6 512c0 109.408-42.6048 212.2688-119.968 289.632C724.2688 878.9952 621.408 921.6 512 921.6c-52.736 0-104.0704-9.8816-152.5888-29.376a16 16 0 1 1 11.9296-29.696C416.0512 880.4928 463.3664 889.6 512 889.6c208.2112 0 377.6-169.3888 377.6-377.6a378.336 378.336 0 0 0-77.1136-228.6528c-7.0336 3.136-14.5984 4.7104-22.1696 4.7104a54.2336 54.2336 0 0 1-38.464-15.9104c-21.216-21.2096-21.216-55.7184 0-76.928z m-58.1568 523.4944a16 16 0 0 1 20.9536 24.1856 304.9856 304.9856 0 0 1-199.7056 74.432c-25.9968 0-51.7376-3.264-76.6656-9.7216a47.936 47.936 0 0 1-37.7472 18.4064c-26.4704 0-48-21.5296-48-48 0-26.464 21.5296-48 48-48 26.1824 0 47.52 21.0752 47.9808 47.1488a273.9712 273.9712 0 0 0 66.432 8.1664 272.9792 272.9792 0 0 0 178.752-66.6176z m-460.0064 49.216c5.7344 0 11.4752 2.176 15.84 6.5472a22.4256 22.4256 0 0 1 0 31.68 22.4256 22.4256 0 0 1-31.68 0 22.4256 22.4256 0 0 1 0-31.68l0.2176-0.192c0.1536-0.128 0.2752-0.256 0.4096-0.3712a22.3232 22.3232 0 0 1 15.2128-5.984z m166.848-5.9136a16.0192 16.0192 0 0 0-16 16c0 8.8256 7.168 16 16 16 8.8192 0 16-7.1744 16-16 0-8.8192-7.1808-16-16-16z m331.4368-83.9744a16.0704 16.0704 0 0 1 22.4768-2.9952 16.0768 16.0768 0 0 1 2.8864 22.496 16.1152 16.1152 0 0 1-12.8 6.304c-3.3792 0-6.784-1.0624-9.6704-3.2768a16.0704 16.0704 0 0 1-2.8992-22.528zM240.7552 605.6a16 16 0 0 1 20.8384 8.832l0.0768 0.192a16 16 0 0 1-29.664 12.0064l-0.0768-0.192a16 16 0 0 1 8.832-20.8384zM365.376 214.0864c26.464 0 48 21.5296 48 48s-21.536 48-48 48a47.7056 47.7056 0 0 1-25.5744-7.4112c-62.4256 52.0896-97.9712 127.7056-97.9712 209.5424 0 17.088 1.5872 34.1824 4.7168 50.816a16 16 0 1 1-31.4496 5.92 307.5648 307.5648 0 0 1-5.2672-56.7296c0-48.6272 11.104-95.1104 33.0048-138.1632 18.7456-36.8448 45.2608-69.9392 77.12-96.48a47.776 47.776 0 0 1-2.5792-15.4944c0-26.4704 21.5296-48 48-48z m234.0416 21.1008a16 16 0 0 1 20.5248-9.5168 306.2016 306.2016 0 0 1 125.728 86.912 305.056 305.056 0 0 1 66.7904 131.8976c21.3184 4.8832 37.28 24 37.28 46.7776 0 26.4704-21.536 48-48 48-26.4704 0-48-21.5296-48-48a48.0448 48.0448 0 0 1 26.7584-43.0272c-21.1776-87.9552-86.1952-161.216-171.5712-192.512a16 16 0 0 1-9.5104-20.5312z m202.3168 240.0704a16.0192 16.0192 0 0 0-16 16c0 8.8256 7.1808 16 16 16 8.8256 0 16-7.1744 16-16s-7.1744-16-16-16zM365.376 246.0864a16.0192 16.0192 0 0 0-16 16c0 8.8192 7.1744 16 16 16 8.8192 0 16-7.1808 16-16s-7.1808-16-16-16z m424.9408-34.7904a22.336 22.336 0 0 0-15.84 6.5472 22.4256 22.4256 0 0 0 0 31.68 22.4 22.4 0 0 0 30.9248 0.6784c0.1728-0.1536 0.3328-0.32 0.512-0.4736l0.0256-0.0128 0.2176-0.192a22.4256 22.4256 0 0 0 0-31.68 22.336 22.336 0 0 0-15.84-6.5472z m-242.08 5.76a16.1152 16.1152 0 0 1 22.4768-2.9952 16.0768 16.0768 0 0 1 2.8864 22.496 16.1152 16.1152 0 0 1-12.8 6.304c-3.3792 0-6.784-1.0688-9.6704-3.2768a16.0704 16.0704 0 0 1-2.8992-22.528z" fill="#4ba9f2" p-id="1047"></path><path d="M596.5056 338.976a16 16 0 0 1 16 0l92.3008 53.2864a16 16 0 0 1 8 13.856V512.704a16 16 0 0 1-8 13.856L620.5056 575.232v97.344a16 16 0 0 1-8 13.856l-92.3008 53.2928a15.9744 15.9744 0 0 1-16 0l-92.3008-53.2928a16 16 0 0 1-8-13.856V575.232l-84.3072-48.672a16 16 0 0 1-8-13.856V406.1184a16 16 0 0 1 8-13.856l92.3008-53.2864a16 16 0 0 1 16 0l84.3072 48.6656zM512.2048 531.168L435.904 575.232v88.1088l76.3008 44.0512 76.3008-44.0512V575.232l-76.3008-44.0512zM419.904 371.3024L343.6032 415.36v88.1088L419.904 547.52l76.3008-44.0512V415.36l-76.3072-44.0512z m184.6016 0L528.2048 415.36v88.1024l76.3008 44.0576 76.3008-44.0576V415.36l-76.3008-44.0576z" fill="#4ba9f2" p-id="1048"></path></svg>
