<svg xmlns="http://www.w3.org/2000/svg" width="20" height="20" viewBox="0 0 20 20"><defs><style>.a{fill:none;opacity:0;}.b{fill:#1485ee;}</style></defs><g transform="translate(-1256.651 -162.333)"><rect class="a" width="20" height="20" transform="translate(1256.651 162.333)"/><path class="b" d="M1273.651,180.833h-14a.5.5,0,0,1-.5-.5V170.047a.5.5,0,0,1,.184-.387l7-5.715a.5.5,0,0,1,.633,0l7,5.715a.5.5,0,0,1,.183.387v10.286A.5.5,0,0,1,1273.651,180.833Zm-13.5-1h13v-9.549l-6.5-5.306-6.5,5.306Zm6.5-3a.5.5,0,0,1-.5-.5v-2.5h-2.5a.5.5,0,0,1,0-1h2.5v-2.5a.5.5,0,0,1,1,0v2.5h2.5a.5.5,0,0,1,0,1h-2.5v2.5A.5.5,0,0,1,1266.651,176.833Z"/></g></svg>