<?xml version="1.0" standalone="no"?><!DOCTYPE svg PUBLIC "-//W3C//DTD SVG 1.1//EN" "http://www.w3.org/Graphics/SVG/1.1/DTD/svg11.dtd"><svg t="1653305289157" class="icon" viewBox="0 0 1024 1024" version="1.1" xmlns="http://www.w3.org/2000/svg" p-id="2012" xmlns:xlink="http://www.w3.org/1999/xlink" width="200" height="200"><defs><style type="text/css">@font-face { font-family: feedback-iconfont; src: url("//at.alicdn.com/t/font_1031158_u69w8yhxdu.woff2?t=1630033759944") format("woff2"), url("//at.alicdn.com/t/font_1031158_u69w8yhxdu.woff?t=1630033759944") format("woff"), url("//at.alicdn.com/t/font_1031158_u69w8yhxdu.ttf?t=1630033759944") format("truetype"); }
</style></defs><path d="M896 307.2v409.6a25.6 25.6 0 0 1-51.2 0V322.048L512 132.096 179.2 322.048V896H665.6a25.6 25.6 0 0 1 0 51.2H153.6a25.6 25.6 0 0 1-25.6-25.6V307.2a25.6 25.6 0 0 1 12.8-22.016l358.4-204.8a25.6 25.6 0 0 1 25.6 0l358.4 204.8a25.6 25.6 0 0 1 12.8 22.016z m-110.08 494.08a24.576 24.576 0 0 1 0 35.84 24.576 24.576 0 0 1-35.84 0l-95.232-94.72a226.304 226.304 0 0 1-142.848 51.2 230.4 230.4 0 1 1 230.4-230.4 226.304 226.304 0 0 1-51.2 142.848zM691.2 563.2a179.2 179.2 0 1 0-179.2 179.2 179.2 179.2 0 0 0 179.2-179.2z" p-id="2013"></path></svg>