<svg xmlns="http://www.w3.org/2000/svg" width="20" height="20" viewBox="0 0 20 20"><defs><style>.a{fill:none;opacity:0;}.b{fill:#1485ee;}</style></defs><g transform="translate(-1339.598 -162.333)"><rect class="a" width="20" height="20" transform="translate(1339.598 162.333)"/><path class="b" d="M1349.6,179.821a.493.493,0,0,1-.345-.139l-6.626-6.33a4.842,4.842,0,0,1,0-7.062,80.61,80.61,0,0,1,13.942,0,4.842,4.842,0,0,1,0,7.062l-6.626,6.33A.5.5,0,0,1,1349.6,179.821Zm-3.313-13.981a4.29,4.29,0,0,0-2.968,1.172,3.846,3.846,0,0,0,0,5.618l6.281,6,6.281-6h0a3.846,3.846,0,0,0,0-5.618,4.345,4.345,0,0,0-5.936,0,.5.5,0,0,1-.69,0A4.291,4.291,0,0,0,1346.285,165.84Zm3.313,10.981a.5.5,0,0,1-.354-.146l-4-4a.5.5,0,1,1,.707-.708l4,4a.5.5,0,0,1-.353.854Z"/></g></svg>