<?xml version="1.0" standalone="no"?><!DOCTYPE svg PUBLIC "-//W3C//DTD SVG 1.1//EN" "http://www.w3.org/Graphics/SVG/1.1/DTD/svg11.dtd"><svg t="1652787772593" class="icon" viewBox="0 0 1024 1024" version="1.1" xmlns="http://www.w3.org/2000/svg" p-id="3699" xmlns:xlink="http://www.w3.org/1999/xlink" width="32" height="32"><defs><style type="text/css">@font-face { font-family: feedback-iconfont; src: url("//at.alicdn.com/t/font_1031158_u69w8yhxdu.woff2?t=1630033759944") format("woff2"), url("//at.alicdn.com/t/font_1031158_u69w8yhxdu.woff?t=1630033759944") format("woff"), url("//at.alicdn.com/t/font_1031158_u69w8yhxdu.ttf?t=1630033759944") format("truetype"); }
</style></defs><path d="M512 152.0128a359.9872 359.9872 0 1 0 359.1168 334.336 39.9872 39.9872 0 0 1 79.7696-5.5808 440.0128 440.0128 0 1 1-87.1424-233.1136c1.792 2.3552 19.3536 27.392 26.624 39.68l-380.2624 380.16a48.0256 48.0256 0 0 1-67.8912 0L272.5376 497.8176a39.9872 39.9872 0 0 1 56.576-56.576L476.16 588.3392l309.8624-309.8624A359.7312 359.7312 0 0 0 512 152.064z" fill="currentColor" p-id="3700"></path></svg>