<svg xmlns="http://www.w3.org/2000/svg" viewBox="0 0 20 20"><defs><style>.cls-1{fill:#fff;opacity:0;}.cls-2{fill:none;stroke:currentColor;stroke-linecap:round;stroke-linejoin:round;}</style></defs><title>流程管理svg</title><g id="图层_2" data-name="图层 2"><g id="流程管理"><rect class="cls-1" width="20" height="20"/><path class="cls-2" d="M13.4,10H6.6A3.61,3.61,0,0,1,3.2,6.2a4,4,0,0,1,1-2.69A3.17,3.17,0,0,1,6.6,2.4h8.17"/><path class="cls-2" d="M16.8,2.4a1,1,0,1,1-1-1A1,1,0,0,1,16.8,2.4Z"/><path class="cls-2" d="M6.6,10h6.8a3.61,3.61,0,0,1,3.4,3.8,4,4,0,0,1-1,2.69,3.17,3.17,0,0,1-2.4,1.11H5.23"/><path class="cls-2" d="M3.2,17.6a1,1,0,1,1,1,1A1,1,0,0,1,3.2,17.6Z"/></g></g></svg>