<?xml version="1.0" standalone="no"?><!DOCTYPE svg PUBLIC "-//W3C//DTD SVG 1.1//EN" "http://www.w3.org/Graphics/SVG/1.1/DTD/svg11.dtd"><svg t="1653305323161" class="icon" viewBox="0 0 1024 1024" version="1.1" xmlns="http://www.w3.org/2000/svg" p-id="2722" xmlns:xlink="http://www.w3.org/1999/xlink" width="200" height="200"><defs><style type="text/css">@font-face { font-family: feedback-iconfont; src: url("//at.alicdn.com/t/font_1031158_u69w8yhxdu.woff2?t=1630033759944") format("woff2"), url("//at.alicdn.com/t/font_1031158_u69w8yhxdu.woff?t=1630033759944") format("woff"), url("//at.alicdn.com/t/font_1031158_u69w8yhxdu.ttf?t=1630033759944") format("truetype"); }
</style></defs><path d="M785.92 947.2a159.232 159.232 0 0 1-114.176-48.64L512 731.648a315.904 315.904 0 0 1-107.008 18.432 25.6 25.6 0 0 1-25.6-25.6 25.6 25.6 0 0 1 25.6-25.6 269.312 269.312 0 0 0 102.4-20.992 25.088 25.088 0 0 1 28.16 5.632l173.056 179.2a108.544 108.544 0 0 0 153.6 0 118.272 118.272 0 0 0 0-162.816L676.864 506.88a25.6 25.6 0 0 1-6.656-24.064 278.016 278.016 0 0 0 8.192-69.12A280.576 280.576 0 0 0 403.456 128a282.624 282.624 0 0 0-36.352 0l138.24 143.36a25.088 25.088 0 0 1 0 35.328l-174.08 183.296a27.136 27.136 0 0 1-36.864 0l-153.6-159.744a301.568 301.568 0 0 0-12.8 83.456 290.304 290.304 0 0 0 117.76 234.496 275.456 275.456 0 0 0 51.2 29.696 25.6 25.6 0 0 1-19.968 47.616 336.896 336.896 0 0 1-63.488-35.84A342.016 342.016 0 0 1 76.8 413.696a351.232 351.232 0 0 1 29.696-141.312 24.576 24.576 0 0 1 18.944-16.384 25.088 25.088 0 0 1 23.04 7.168L312.832 435.2l138.752-143.36-153.6-158.72a24.576 24.576 0 0 1-6.144-24.064 25.088 25.088 0 0 1 15.36-17.92 311.808 311.808 0 0 1 96.256-14.336 332.288 332.288 0 0 1 326.144 336.896 328.704 328.704 0 0 1-6.656 67.584l177.152 184.32a168.96 168.96 0 0 1 0 233.472 157.184 157.184 0 0 1-114.176 48.128z" p-id="2723"></path></svg>