<svg xmlns="http://www.w3.org/2000/svg" width="20" height="20" viewBox="0 0 20 20"><defs><style>.a{fill:none;opacity:0;}.b{fill:#f93;}</style></defs><rect class="a" width="20" height="20"/><path class="b" d="M96.95,45.533H83.05a2.168,2.168,0,0,1-2.166-2.167V30.008a2.707,2.707,0,0,1,2.7-2.709H97.708a.5.5,0,0,1,.5.5.557.557,0,0,1-.407.542,1.718,1.718,0,0,0-.888.478h0a1.751,1.751,0,0,0-.52,1.246A1.773,1.773,0,0,0,97.807,31.8a.467.467,0,0,1,.1.032h.709a.5.5,0,0,1,.5.5V43.366A2.168,2.168,0,0,1,96.95,45.533Zm-15.066-13.3V43.366a1.168,1.168,0,0,0,1.166,1.167h13.9a1.168,1.168,0,0,0,1.166-1.167V32.833H83.583A2.685,2.685,0,0,1,81.884,32.229Zm0-2.1a1.7,1.7,0,0,0,1.7,1.7H96.029a2.775,2.775,0,0,1-.637-1.767,2.739,2.739,0,0,1,.642-1.767H83.583a1.706,1.706,0,0,0-1.7,1.709Zm14.675-1.667h0ZM93.009,41H84.1a.5.5,0,0,1,0-1h8.907a.5.5,0,0,1,0,1Zm2.654-4.082H84.1a.5.5,0,0,1,0-1H95.663a.5.5,0,0,1,0,1Z" transform="translate(-80 -26.416)"/></svg>