<?xml version="1.0" standalone="no"?><!DOCTYPE svg PUBLIC "-//W3C//DTD SVG 1.1//EN" "http://www.w3.org/Graphics/SVG/1.1/DTD/svg11.dtd"><svg t="1653305257436" class="icon" viewBox="0 0 1024 1024" version="1.1" xmlns="http://www.w3.org/2000/svg" p-id="1444" xmlns:xlink="http://www.w3.org/1999/xlink" width="200" height="200"><defs><style type="text/css">@font-face { font-family: feedback-iconfont; src: url("//at.alicdn.com/t/font_1031158_u69w8yhxdu.woff2?t=1630033759944") format("woff2"), url("//at.alicdn.com/t/font_1031158_u69w8yhxdu.woff?t=1630033759944") format("woff"), url("//at.alicdn.com/t/font_1031158_u69w8yhxdu.ttf?t=1630033759944") format("truetype"); }
</style></defs><path d="M885.248 313.856l-358.4-256a26.112 26.112 0 0 0-29.696 0l-358.4 256a26.624 26.624 0 0 0-10.752 20.992v563.2A25.6 25.6 0 0 0 153.6 921.6h716.8a25.6 25.6 0 0 0 25.6-25.6v-563.2a26.624 26.624 0 0 0-10.752-18.944zM844.8 870.4h-665.6V348.16L512 110.08l332.8 238.08zM512 307.2a25.6 25.6 0 0 1 25.6 25.6v347.648l161.28-161.28a25.6 25.6 0 0 1 36.352 36.352l-204.8 204.8A26.624 26.624 0 0 1 512 768a27.648 27.648 0 0 1-18.432-7.168l-204.8-204.8a25.6 25.6 0 0 1 0-36.352 26.112 26.112 0 0 1 36.352 0l161.28 163.328v-348.16A25.6 25.6 0 0 1 512 307.2z" p-id="1445"></path></svg>