<svg xmlns="http://www.w3.org/2000/svg" width="20" height="20" viewBox="0 0 20 20"><defs><style>.a{fill:none;opacity:0;}.b{fill:#1485ee;}</style></defs><g transform="translate(-1381.071 -162.333)"><rect class="a" width="20" height="20" transform="translate(1381.071 162.333)"/><path class="b" d="M1398.071,180.833h-14a.5.5,0,0,1-.5-.5v-16a.5.5,0,0,1,.5-.5h14a.5.5,0,0,1,.5.5v16A.5.5,0,0,1,1398.071,180.833Zm-13.5-1h13v-15h-13Zm4.5-1a.5.5,0,0,1-.353-.147l-2-2-.011-.012h0a.5.5,0,0,1-.1-.151.49.49,0,0,1-.038-.176h0v-.025h0a.486.486,0,0,1,.038-.176.5.5,0,0,1,.1-.151h0l.011-.012,2-2a.5.5,0,1,1,.707.707l-1.147,1.147h6.793a.5.5,0,0,1,0,1h-6.793l1.147,1.146a.5.5,0,0,1-.354.854Zm6-6h-8a.5.5,0,0,1,0-1h8a.5.5,0,0,1,0,1Zm0-3h-8a.5.5,0,0,1,0-1h8a.5.5,0,0,1,0,1Zm0-3h-8a.5.5,0,0,1,0-1h8a.5.5,0,0,1,0,1Z"/></g></svg>