<svg xmlns="http://www.w3.org/2000/svg" width="20" height="20" viewBox="0 0 20 20"><defs><style>.a{fill:none;opacity:0;}.b{fill:#fa9d3b;}</style></defs><g transform="translate(-1298.125 -197.326)"><rect class="a" width="20" height="20" transform="translate(1298.125 197.326)"/><path class="b" d="M1316.125,214.826h-4a.5.5,0,0,1-.5-.5v-9a.5.5,0,0,1,.5-.5h4a.5.5,0,0,1,.5.5v9A.5.5,0,0,1,1316.125,214.826Zm-3.5-1h3v-8h-3Zm-2.5,1h-4a.5.5,0,0,1-.5-.5v-7a.5.5,0,0,1,.5-.5h4a.5.5,0,0,1,.5.5v7A.5.5,0,0,1,1310.125,214.826Zm-3.5-1h3v-6h-3Zm-2.5,1h-4a.5.5,0,0,1-.5-.5v-5a.5.5,0,0,1,.5-.5h4a.5.5,0,0,1,.5.5v5A.5.5,0,0,1,1304.125,214.826Zm-3.5-1h3v-4h-3Zm-.5-6a.5.5,0,0,1-.074-1c4.663-.695,11.126-2.986,14.784-6h-1.709a.5.5,0,0,1,0-1h3a.487.487,0,0,1,.187.037.48.48,0,0,1,.163.107.492.492,0,0,1,.111.163h0a.52.52,0,0,1,.038.193v3a.5.5,0,0,1-1,0v-1.859c-3.789,3.2-10.567,5.628-15.426,6.354A.658.658,0,0,1,1300.124,207.826Z"/></g></svg>