<svg xmlns="http://www.w3.org/2000/svg" width="20" height="20" viewBox="0 0 20 20"><defs><style>.a{fill:none;opacity:0;}.b{fill:#1485ee;}</style></defs><g transform="translate(-1298.125 -162.333)"><rect class="a" width="20" height="20" transform="translate(1298.125 162.333)"/><path class="b" d="M1315.125,180.833h-14a.5.5,0,0,1-.5-.5v-10a.5.5,0,0,1,.174-.38l7-6a.5.5,0,0,1,.651,0l7,6a.5.5,0,0,1,.175.38v10A.5.5,0,0,1,1315.125,180.833Zm-13.5-1h13v-9.27l-6.5-5.572-6.5,5.572Zm6.5-2a.5.5,0,0,1-.5-.5v-1.5h-2.5a.5.5,0,0,1,0-1h2.5v-1h-2.5a.5.5,0,0,1,0-1h1.793l-2.147-2.147a.5.5,0,1,1,.707-.707l2.647,2.647,2.646-2.647a.5.5,0,1,1,.707.707l-2.146,2.147h1.793a.5.5,0,0,1,0,1h-2.5v1h2.5a.5.5,0,0,1,0,1h-2.5v1.5A.5.5,0,0,1,1308.125,177.833Z"/></g></svg>