<?xml version="1.0" standalone="no"?><!DOCTYPE svg PUBLIC "-//W3C//DTD SVG 1.1//EN" "http://www.w3.org/Graphics/SVG/1.1/DTD/svg11.dtd"><svg t="1653305333368" class="icon" viewBox="0 0 1024 1024" version="1.1" xmlns="http://www.w3.org/2000/svg" p-id="2864" xmlns:xlink="http://www.w3.org/1999/xlink" width="200" height="200"><defs><style type="text/css">@font-face { font-family: feedback-iconfont; src: url("//at.alicdn.com/t/font_1031158_u69w8yhxdu.woff2?t=1630033759944") format("woff2"), url("//at.alicdn.com/t/font_1031158_u69w8yhxdu.woff?t=1630033759944") format("woff"), url("//at.alicdn.com/t/font_1031158_u69w8yhxdu.ttf?t=1630033759944") format("truetype"); }
</style></defs><path d="M716.8 486.4h-178.688V307.2a25.6 25.6 0 1 0-51.2 0v179.2H307.2a25.6 25.6 0 0 0 0 51.2h179.712V716.8a25.6 25.6 0 0 0 51.2 0v-179.2H716.8a25.6 25.6 0 0 0 0-51.2z" p-id="2865"></path><path d="M512 76.8a434.688 434.688 0 1 0 434.688 435.2A435.2 435.2 0 0 0 512 76.8z m0 819.2a383.488 383.488 0 1 1 383.488-384A384 384 0 0 1 512 894.976z" p-id="2866"></path></svg>