<svg xmlns="http://www.w3.org/2000/svg" width="20" height="20" viewBox="0 0 20 20"><defs><style>.a{fill:#fff;opacity:0;}.b{fill:none;stroke:currentColor;stroke-miterlimit:10;}</style></defs><g transform="translate(-36.855 -1571.097)"><rect class="a" width="20" height="20" transform="translate(36.855 1571.097)"/><rect class="b" width="13.257" height="17.175" rx="1.433" transform="translate(40.226 1572.509)"/><path class="b" d="M48.139,1577.256l.375.759a1.433,1.433,0,0,0,1.079.784l.837.122a1.433,1.433,0,0,1,.794,2.444l-.606.59a1.431,1.431,0,0,0-.412,1.268l.143.834a1.433,1.433,0,0,1-2.079,1.511l-.749-.394a1.434,1.434,0,0,0-1.333,0l-.749.394a1.433,1.433,0,0,1-2.079-1.511l.143-.834a1.431,1.431,0,0,0-.412-1.268l-.606-.59a1.433,1.433,0,0,1,.794-2.444l.837-.122a1.432,1.432,0,0,0,1.079-.784l.375-.759A1.432,1.432,0,0,1,48.139,1577.256Z"/><circle class="b" cx="2.149" cy="2.149" r="2.149" transform="translate(44.699 1579.115)"/></g></svg>