<svg xmlns="http://www.w3.org/2000/svg" viewBox="0 0 20 20"><defs><style>.cls-1{fill:none;}</style></defs><title>登录日志2</title><g id="图层_2" data-name="图层 2"><g id="图层_1-2" data-name="图层 1"><g id="登录日志"><rect class="cls-1" width="20" height="20"/><path d="M16,2.56V7.45a.5.5,0,0,1-.5.5.5.5,0,0,1-.5-.5V2.56a.81.81,0,0,0-.81-.81H4.29a.8.8,0,0,0-.8.81V5.75h.75a.5.5,0,0,1,0,1H3.49V9.5h.75a.5.5,0,0,1,0,1H3.49v2.75h.75a.5.5,0,1,1,0,1H3.49v3.19a.8.8,0,0,0,.8.81h9.89a.5.5,0,0,1,0,1H4.29a1.81,1.81,0,0,1-1.8-1.81V14.25H1.74a.5.5,0,0,1,0-1h.75V10.5H1.74a.5.5,0,0,1,0-1h.75V6.75H1.74a.5.5,0,0,1,0-1h.75V2.56A1.81,1.81,0,0,1,4.29.75h9.89A1.81,1.81,0,0,1,16,2.56Z"/><path d="M12,7.38H6.46a.86.86,0,0,1-.85-.85V4.72a.85.85,0,0,1,.85-.84H12a.85.85,0,0,1,.85.84V6.53A.86.86,0,0,1,12,7.38Zm-5.4-1h5.25V4.88H6.61Z"/><path d="M15.58,12.92a2.38,2.38,0,1,0-3.38,0A4.89,4.89,0,0,0,9,17.5a.5.5,0,0,0,.5.5.5.5,0,0,0,.5-.5,3.88,3.88,0,1,1,7.75,0,.5.5,0,0,0,.5.5.5.5,0,0,0,.5-.5A4.88,4.88,0,0,0,15.58,12.92Zm-3.07-1.67a1.38,1.38,0,1,1,1.38,1.37A1.37,1.37,0,0,1,12.51,11.25Z"/></g></g></g></svg>