<svg xmlns="http://www.w3.org/2000/svg" width="20" height="20" viewBox="0 0 20 20"><defs><style>.a{fill:none;opacity:0;}.b{fill:#f93;}</style></defs><rect class="a" width="20" height="20"/><path class="b" d="M86.41,98.36h-3.6a1.94,1.94,0,0,1-1.938-1.938v-3.6a1.94,1.94,0,0,1,1.938-1.938h3.6a1.941,1.941,0,0,1,1.939,1.938v3.6A1.941,1.941,0,0,1,86.41,98.36Zm-3.6-6.473a.939.939,0,0,0-.938.938v3.6a.939.939,0,0,0,.938.938h3.6a.94.94,0,0,0,.939-.938v-3.6a.94.94,0,0,0-.939-.938Zm7.193,4.491a.5.5,0,0,1,0-1,6.149,6.149,0,0,0,6.142-6.131A.5.5,0,0,1,97,88.895l1.977,1.976a.5.5,0,0,1-.708.707L97.06,90.366A7.158,7.158,0,0,1,90.006,96.378Zm-6.635-6.63a.5.5,0,0,1-.353-.146l-1.977-1.977a.5.5,0,0,1,.707-.707L82.96,88.13a7.155,7.155,0,0,1,7.053-6.012.5.5,0,0,1,0,1,6.149,6.149,0,0,0-6.142,6.131.5.5,0,0,1-.308.461A.517.517,0,0,1,83.371,89.748ZM97.18,87.609h-3.6a1.94,1.94,0,0,1-1.938-1.938v-3.6a1.94,1.94,0,0,1,1.938-1.938h3.6a1.94,1.94,0,0,1,1.938,1.938v3.6A1.94,1.94,0,0,1,97.18,87.609Zm-3.6-6.473a.939.939,0,0,0-.938.938v3.6a.939.939,0,0,0,.938.938h3.6a.939.939,0,0,0,.938-.938v-3.6a.939.939,0,0,0-.938-.938Z" transform="translate(-80 -79.248)"/></svg>