<svg xmlns="http://www.w3.org/2000/svg" width="20" height="20" viewBox="0 0 20 20"><defs><style>.a{fill:#fff;opacity:0;}.b{fill:none;stroke:currentColor;stroke-linecap:round;stroke-miterlimit:10;}</style></defs><g transform="translate(-36.844 -1441.068)"><rect class="a" width="20" height="20" transform="translate(36.844 1441.068)"/><path class="b" d="M43.943,1445.985v-2.1a1.44,1.44,0,0,1,1.44-1.44h8.638a1.44,1.44,0,0,1,1.44,1.44v8.638a1.44,1.44,0,0,1-1.44,1.44H45.383a1.44,1.44,0,0,1-1.44-1.44v-2.22"/><path class="b" d="M49.717,1456.124v2.1a1.44,1.44,0,0,1-1.44,1.44H39.639a1.44,1.44,0,0,1-1.439-1.44v-8.638a1.44,1.44,0,0,1,1.439-1.44h8.638a1.44,1.44,0,0,1,1.44,1.44v2.22"/></g></svg>