<?xml version="1.0" standalone="no"?><!DOCTYPE svg PUBLIC "-//W3C//DTD SVG 1.1//EN" "http://www.w3.org/Graphics/SVG/1.1/DTD/svg11.dtd"><svg t="1652787742527" class="icon" viewBox="0 0 1024 1024" version="1.1" xmlns="http://www.w3.org/2000/svg" p-id="2831" xmlns:xlink="http://www.w3.org/1999/xlink" width="32" height="32"><defs><style type="text/css">@font-face { font-family: feedback-iconfont; src: url("//at.alicdn.com/t/font_1031158_u69w8yhxdu.woff2?t=1630033759944") format("woff2"), url("//at.alicdn.com/t/font_1031158_u69w8yhxdu.woff?t=1630033759944") format("woff"), url("//at.alicdn.com/t/font_1031158_u69w8yhxdu.ttf?t=1630033759944") format("truetype"); }
</style></defs><path d="M983.808033 312.746406a510.719574 510.719574 0 0 0-109.738575-162.730531A510.634241 510.634241 0 0 0 512.000427 0.085333a510.548908 510.548908 0 0 0-362.069032 149.930542A510.719574 510.719574 0 0 0 0.000853 512.084907a510.548908 510.548908 0 0 0 149.930542 362.069031A510.634241 510.634241 0 0 0 512.000427 1024.08448a510.548908 510.548908 0 0 0 362.069031-149.930542 510.634241 510.634241 0 0 0 149.845209-361.983698 510.634241 510.634241 0 0 0-40.106634-199.423834z m-538.111551-62.463948A66.303945 66.303945 0 0 1 512.000427 183.978513a66.303945 66.303945 0 0 1 66.303944 66.303945v309.418409A66.303945 66.303945 0 0 1 512.000427 626.004812a66.303945 66.303945 0 0 1-66.303945-66.303945zM512.000427 840.105967a76.799936 76.799936 0 0 1-76.799936-76.799936 76.799936 76.799936 0 0 1 76.799936-76.799936 76.799936 76.799936 0 0 1 76.799936 76.799936 76.799936 76.799936 0 0 1-76.799936 76.714602z" fill="#FF9E2B" p-id="2832"></path></svg>