<svg xmlns="http://www.w3.org/2000/svg" width="20" height="20" viewBox="0 0 20 20"><defs><style>.a{fill:none;opacity:0;}.b{fill:#1485ee;}</style></defs><g transform="translate(-1422.545 -162.333)"><rect class="a" width="20" height="20" transform="translate(1422.545 162.333)"/><path class="b" d="M1432.545,180.833a8.5,8.5,0,1,1,8.5-8.5A8.51,8.51,0,0,1,1432.545,180.833Zm0-16a7.5,7.5,0,1,0,7.5,7.5A7.508,7.508,0,0,0,1432.545,164.833Zm0,11a.5.5,0,0,1-.5-.5v-2.5h-2.5a.5.5,0,0,1,0-1h2.5v-5.5a.5.5,0,0,1,1,0v5.5h5.5a.5.5,0,0,1,0,1h-5.5v2.5A.5.5,0,0,1,1432.545,175.833Z"/></g></svg>