<svg xmlns="http://www.w3.org/2000/svg" viewBox="0 0 20 20"><defs><style>.cls-1{fill:none;}</style></defs><title>操作日志2</title><g id="图层_2" data-name="图层 2"><g id="图层_1-2" data-name="图层 1"><g id="操作日志"><rect class="cls-1" width="20" height="20"/><path d="M12,7.38H6.46a.86.86,0,0,1-.85-.85V4.72a.85.85,0,0,1,.85-.84H12a.85.85,0,0,1,.85.84V6.53A.86.86,0,0,1,12,7.38Zm-5.4-1h5.25V4.88H6.61Z"/><path d="M15,3.17V2.56a.81.81,0,0,0-.81-.81H4.29a.8.8,0,0,0-.8.81V5.75h.75a.5.5,0,0,1,0,1H3.49V9.5h.75a.5.5,0,0,1,0,1H3.49v2.75h.75a.5.5,0,1,1,0,1H3.49v3.19a.8.8,0,0,0,.8.81h9.89a.81.81,0,0,0,.81-.81V12.81a.5.5,0,0,1,.5-.5.51.51,0,0,1,.5.5v4.63a1.81,1.81,0,0,1-1.81,1.81H4.29a1.81,1.81,0,0,1-1.8-1.81V14.25H1.74a.5.5,0,0,1,0-1h.75V10.5H1.74a.5.5,0,0,1,0-1h.75V6.75H1.74a.5.5,0,0,1,0-1h.75V2.56A1.81,1.81,0,0,1,4.29.75h9.89A1.81,1.81,0,0,1,16,2.56v.61a.5.5,0,0,1-.5.5A.5.5,0,0,1,15,3.17Z"/><path d="M11.11,16.13H7.36a.5.5,0,0,1-.5-.5.5.5,0,0,1,.5-.5h3.75a.5.5,0,0,1,.5.5A.5.5,0,0,1,11.11,16.13Z"/><path d="M9.32,14.72a.72.72,0,0,1-.53-.23.74.74,0,0,1-.2-.72l.66-2.65,6.27-6.27a1.12,1.12,0,0,1,1.59,0l1.32,1.32a1.12,1.12,0,0,1,0,1.59L12.16,14l-2.65.66A.63.63,0,0,1,9.32,14.72Zm.83-3.09-.5,2,2-.5,6.08-6.08a.13.13,0,0,0,0-.18L16.41,5.55a.13.13,0,0,0-.18,0Z"/></g></g></g></svg>