<svg xmlns="http://www.w3.org/2000/svg" width="20" height="20" viewBox="0 0 20 20"><defs><style>.a{fill:none;opacity:0;}.b{fill:#1485ee;}</style></defs><g transform="translate(-1381.071 -197.326)"><rect class="a" width="20" height="20" transform="translate(1381.071 197.326)"/><path class="b" d="M1398.071,214.826h-6a.5.5,0,0,1-.5-.5v-6a.5.5,0,0,1,.5-.5h6a.5.5,0,0,1,.5.5v6A.5.5,0,0,1,1398.071,214.826Zm-5.5-1h5v-5h-5Zm-2.5,1h-6a.5.5,0,0,1-.5-.5v-6a.5.5,0,0,1,.5-.5h6a.5.5,0,0,1,.5.5v6A.5.5,0,0,1,1390.071,214.826Zm-5.5-1h5v-5h-5Zm10.5-7a3.5,3.5,0,1,1,3.5-3.5A3.5,3.5,0,0,1,1395.071,206.826Zm0-6a2.5,2.5,0,1,0,2.5,2.5A2.5,2.5,0,0,0,1395.071,200.826Zm-5,6h-6a.5.5,0,0,1-.5-.5v-6a.5.5,0,0,1,.5-.5h6a.5.5,0,0,1,.5.5v6A.5.5,0,0,1,1390.071,206.826Zm-5.5-1h5v-5h-5Z"/></g></svg>