<svg xmlns="http://www.w3.org/2000/svg" width="20" height="20" viewBox="0 0 20 20"><defs><style>.a{fill:#fff;opacity:0;}.b{fill:none;stroke:currentColor;stroke-linecap:round;stroke-miterlimit:10;}</style></defs><g transform="translate(-36.855 -1494.523)"><rect class="a" width="20" height="20" transform="translate(36.855 1494.523)"/><line class="b" y1="2.561" transform="translate(40.864 1510.513)"/><line class="b" y1="8.854" transform="translate(40.864 1495.952)"/><line class="b" y1="9.196" transform="translate(46.799 1503.878)"/><line class="b" y1="2.219" transform="translate(46.799 1495.952)"/><line class="b" y1="1.134" transform="translate(51.985 1511.94)"/><line class="b" y1="10.28" transform="translate(51.985 1495.952)"/><circle class="b" cx="1.427" cy="1.427" r="1.427" transform="translate(39.437 1506.232)"/><path class="b" d="M48.24,1501.024a1.431,1.431,0,0,1-1.426,1.427H46.8a1.427,1.427,0,0,1,0-2.854h.015A1.426,1.426,0,0,1,48.24,1501.024Z"/><path class="b" d="M53.412,1509.086a1.431,1.431,0,0,1-1.427,1.427h-.014a1.427,1.427,0,0,1,0-2.854h.014A1.426,1.426,0,0,1,53.412,1509.086Z"/></g></svg>