<svg xmlns="http://www.w3.org/2000/svg" width="20" height="20" viewBox="0 0 20 20"><defs><style>.a{fill:none;opacity:0;}.b{fill:#1485ee;}</style></defs><g transform="translate(-1215.183 -162.509)"><rect class="a" width="20" height="20" transform="translate(1215.183 162.509)"/><path class="b" d="M1232.183,181.009h-14a.5.5,0,0,1-.5-.5v-10a.5.5,0,0,1,.175-.379l7-6a.5.5,0,0,1,.651,0l7,6a.5.5,0,0,1,.174.379v10A.5.5,0,0,1,1232.183,181.009Zm-13.5-1h13v-9.27l-6.5-5.571-6.5,5.571Zm6.5-2h-.015a.5.5,0,0,1-.326-.134h0l0,0h0l-.012-.011-3-3a.5.5,0,1,1,.707-.707l2.146,2.146v-6.793a.5.5,0,1,1,1,0V176.3l2.147-2.146a.5.5,0,1,1,.707.707l-3,3-.011.011h0l0,0h0a.5.5,0,0,1-.326.134h-.016Z"/></g></svg>