<svg xmlns="http://www.w3.org/2000/svg" width="20" height="20" viewBox="0 0 20 20"><defs><style>.a{fill:none;opacity:0;}.b{fill:#f93;}</style></defs><rect class="a" width="20" height="20"/><path class="b" d="M54.763,71.949h-.039a2.366,2.366,0,0,1-1.674-.7l-2.39-2.392a4.42,4.42,0,0,1-5.184-5.55l.236-.812,1.925,1.926a1.4,1.4,0,0,0,1.976-1.977l-1.93-1.929.812-.237a4.432,4.432,0,0,1,5.559,5.194l2.386,2.385a2.4,2.4,0,0,1,0,3.391A2.358,2.358,0,0,1,54.763,71.949Zm-.02-1a1.555,1.555,0,0,0,.994-.408,1.4,1.4,0,0,0,0-1.977l-2.8-2.8.082-.285a3.431,3.431,0,0,0-3.332-4.38l.633.633a2.4,2.4,0,0,1-3.39,3.391l-.63-.63a3.42,3.42,0,0,0,4.373,3.324l.284-.082,2.8,2.8a1.371,1.371,0,0,0,.975.408Zm-2.876.982H44.792a1.939,1.939,0,0,1-1.936-1.937V55.651a1.939,1.939,0,0,1,1.936-1.936H55.208a1.94,1.94,0,0,1,1.937,1.936v10.4a.5.5,0,0,1-1,0v-10.4a.937.937,0,0,0-.937-.936H44.792a.937.937,0,0,0-.936.936V69.994a.937.937,0,0,0,.936.937h7.075a.5.5,0,1,1,0,1Zm3.2-13.753H44.91a.5.5,0,0,1,0-1H55.071a.5.5,0,0,1,0,1Z" transform="translate(-40 -52.832)"/></svg>