<svg xmlns="http://www.w3.org/2000/svg" width="20" height="20" viewBox="0 0 20 20"><defs><style>.a{fill:none;opacity:0;}.b{fill:#f93;}</style></defs><rect class="a" width="20" height="20"/><path class="b" d="M95.825,19.482H84.175A1.979,1.979,0,0,1,82.2,17.506V8.239a1.979,1.979,0,0,1,1.977-1.976h11.65A1.979,1.979,0,0,1,97.8,8.239v9.267A1.979,1.979,0,0,1,95.825,19.482ZM84.175,7.263a.978.978,0,0,0-.977.976v9.267a.978.978,0,0,0,.977.976h11.65a.978.978,0,0,0,.977-.976V8.239a.978.978,0,0,0-.977-.976ZM90,16.424a.5.5,0,0,1-.451-.284l-2.69-2.2a.5.5,0,0,1,.633-.775l2.008,1.64V9.33a.5.5,0,0,1,1,0v5.479l2.008-1.64a.5.5,0,0,1,.633.775l-2.69,2.2A.5.5,0,0,1,90,16.424Zm4.788-10.7H85.212a1.931,1.931,0,0,1-1.783-.991A1.325,1.325,0,0,1,83.618,3.3l1.105-1.36a2.047,2.047,0,0,1,1.593-.692h7.368a2.048,2.048,0,0,1,1.594.693l1.1,1.359a1.325,1.325,0,0,1,.189,1.434A1.931,1.931,0,0,1,94.788,5.725ZM86.316,2.248a1.079,1.079,0,0,0-.817.323l-1.105,1.36a.326.326,0,0,0-.063.373.963.963,0,0,0,.881.421h9.576a.963.963,0,0,0,.881-.421.326.326,0,0,0-.063-.373l-1.1-1.36a1.083,1.083,0,0,0-.818-.323Z" transform="translate(-80 -0.365)"/></svg>