<?xml version="1.0" standalone="no"?><!DOCTYPE svg PUBLIC "-//W3C//DTD SVG 1.1//EN" "http://www.w3.org/Graphics/SVG/1.1/DTD/svg11.dtd"><svg t="1653305317330" class="icon" viewBox="0 0 1024 1024" version="1.1" xmlns="http://www.w3.org/2000/svg" p-id="2580" xmlns:xlink="http://www.w3.org/1999/xlink" width="200" height="200"><defs><style type="text/css">@font-face { font-family: feedback-iconfont; src: url("//at.alicdn.com/t/font_1031158_u69w8yhxdu.woff2?t=1630033759944") format("woff2"), url("//at.alicdn.com/t/font_1031158_u69w8yhxdu.woff?t=1630033759944") format("woff"), url("//at.alicdn.com/t/font_1031158_u69w8yhxdu.ttf?t=1630033759944") format("truetype"); }
</style></defs><path d="M801.28 947.2a153.6 153.6 0 0 1-72.192-17.408L153.6 628.736a129.024 129.024 0 0 1 0-233.472l575.488-301.056a157.184 157.184 0 0 1 153.6 5.12 131.584 131.584 0 0 1 64.512 112.128v204.8a25.6 25.6 0 0 1-51.2 0v-204.8a79.872 79.872 0 0 0-40.96-68.608 105.472 105.472 0 0 0-102.4-3.072L174.592 440.832a77.824 77.824 0 0 0 0 142.336l578.048 301.056a105.472 105.472 0 0 0 102.4-3.072 79.872 79.872 0 0 0 40.96-68.608v-204.8a25.6 25.6 0 0 1 51.2 0v204.8a131.072 131.072 0 0 1-65.536 112.128 156.16 156.16 0 0 1-80.384 22.528z" p-id="2581"></path></svg>