<?xml version="1.0" standalone="no"?><!DOCTYPE svg PUBLIC "-//W3C//DTD SVG 1.1//EN" "http://www.w3.org/Graphics/SVG/1.1/DTD/svg11.dtd"><svg t="1653305305950" class="icon" viewBox="0 0 1024 1024" version="1.1" xmlns="http://www.w3.org/2000/svg" p-id="2296" xmlns:xlink="http://www.w3.org/1999/xlink" width="200" height="200"><defs><style type="text/css">@font-face { font-family: feedback-iconfont; src: url("//at.alicdn.com/t/font_1031158_u69w8yhxdu.woff2?t=1630033759944") format("woff2"), url("//at.alicdn.com/t/font_1031158_u69w8yhxdu.woff?t=1630033759944") format("woff"), url("//at.alicdn.com/t/font_1031158_u69w8yhxdu.ttf?t=1630033759944") format("truetype"); }
</style></defs><path d="M768 128H256A128 128 0 0 0 128 256v512A128 128 0 0 0 256 896h512a128 128 0 0 0 128-128V256A128 128 0 0 0 768 128zM844.8 768a76.8 76.8 0 0 1-76.8 76.8H256A76.8 76.8 0 0 1 179.2 768V256A76.8 76.8 0 0 1 256 179.2h512A76.8 76.8 0 0 1 844.8 256z m-110.08-442.88L548.352 512l186.368 186.88a24.576 24.576 0 0 1 0 35.84 24.576 24.576 0 0 1-35.84 0L512 548.352l-186.88 186.368a24.576 24.576 0 0 1-35.84 0 24.576 24.576 0 0 1 0-35.84L475.648 512 289.28 325.12a25.088 25.088 0 0 1 35.84-35.84L512 475.648l186.88-186.368a25.088 25.088 0 0 1 35.84 35.84z" p-id="2297"></path></svg>