<?xml version="1.0" standalone="no"?><!DOCTYPE svg PUBLIC "-//W3C//DTD SVG 1.1//EN" "http://www.w3.org/Graphics/SVG/1.1/DTD/svg11.dtd"><svg t="1653305158359" class="icon" viewBox="0 0 1024 1024" version="1.1" xmlns="http://www.w3.org/2000/svg" p-id="1705" xmlns:xlink="http://www.w3.org/1999/xlink" width="200" height="200"><defs><style type="text/css">@font-face { font-family: feedback-iconfont; src: url("//at.alicdn.com/t/font_1031158_u69w8yhxdu.woff2?t=1630033759944") format("woff2"), url("//at.alicdn.com/t/font_1031158_u69w8yhxdu.woff?t=1630033759944") format("woff"), url("//at.alicdn.com/t/font_1031158_u69w8yhxdu.ttf?t=1630033759944") format("truetype"); }
</style></defs><path d="M68.266667 277.661538h301.948718a143.491282 143.491282 0 0 0 282.387692 0h301.948718a26.25641 26.25641 0 0 0 0-52.51282h-301.948718a143.491282 143.491282 0 0 0-282.387692 0h-301.948718a26.25641 26.25641 0 1 0 0 52.51282z m443.733333-118.153846a91.897436 91.897436 0 1 1-91.897436 91.897436 91.897436 91.897436 0 0 1 91.897436-91.634872zM955.733333 485.74359h-45.161025a143.622564 143.622564 0 0 0-282.518975 0H68.266667a26.25641 26.25641 0 0 0 0 52.51282h559.786666a143.491282 143.491282 0 0 0 282.518975 0h45.161025a26.25641 26.25641 0 0 0 0-52.51282z m-186.420512 118.153846a91.897436 91.897436 0 1 1 91.241025-91.897436 91.897436 91.897436 0 0 1-91.241025 91.897436z m186.420512 142.441026H392.402051a143.491282 143.491282 0 0 0-282.387692 0H68.266667a26.25641 26.25641 0 1 0 0 52.51282h41.747692a143.491282 143.491282 0 0 0 282.387692 0H955.733333a26.25641 26.25641 0 0 0 0-52.51282z m-704.459487 118.153846a91.897436 91.897436 0 1 1 91.109744-91.897436 91.897436 91.897436 0 0 1-91.109744 91.634872z" p-id="1706"></path></svg>