<svg xmlns="http://www.w3.org/2000/svg" width="20" height="20" viewBox="0 0 20 20"><defs><style>.a{fill:#fff;opacity:0;}.b,.c{fill:none;stroke:currentColor;stroke-miterlimit:10;}.c{stroke-linecap:round;}</style></defs><g transform="translate(-36.628 -1546.339)"><rect class="a" width="20" height="20" transform="translate(36.628 1546.339)"/><path class="b" d="M44.5,1548.5l.378.858a1.3,1.3,0,0,0,1.336.771l.932-.1a1.306,1.306,0,0,1,1.195,2.069l-.554.757a1.305,1.305,0,0,0,0,1.542l.554.757a1.306,1.306,0,0,1-1.195,2.069l-.932-.1a1.3,1.3,0,0,0-1.336.771l-.378.858a1.306,1.306,0,0,1-2.39,0l-.378-.858a1.3,1.3,0,0,0-1.336-.771l-.932.1a1.306,1.306,0,0,1-1.195-2.069l.554-.757a1.305,1.305,0,0,0,0-1.542l-.554-.757a1.306,1.306,0,0,1,1.195-2.069l.932.1a1.3,1.3,0,0,0,1.336-.771l.378-.858A1.306,1.306,0,0,1,44.5,1548.5Z"/><path class="b" d="M52.273,1556.953l.274.623a.948.948,0,0,0,.97.559l.676-.073a.948.948,0,0,1,.867,1.5l-.4.548a.948.948,0,0,0,0,1.12l.4.549a.948.948,0,0,1-.867,1.5l-.676-.074a.948.948,0,0,0-.97.56l-.274.622a.947.947,0,0,1-1.734,0l-.275-.622a.947.947,0,0,0-.969-.56l-.677.074a.948.948,0,0,1-.867-1.5l.4-.549a.948.948,0,0,0,0-1.12l-.4-.548a.948.948,0,0,1,.867-1.5l.677.073a.948.948,0,0,0,.969-.559l.275-.623A.947.947,0,0,1,52.273,1556.953Z"/><line class="c" x2="6.943" transform="translate(38.011 1561.431)"/><line class="c" x2="6.943" transform="translate(38.011 1564.957)"/><circle class="c" cx="2.159" cy="2.159" r="2.159" transform="translate(41.143 1551.467)"/><circle class="c" cx="1.439" cy="1.439" r="1.439" transform="translate(49.966 1559.233)"/></g></svg>
