<?xml version="1.0" standalone="no"?><!DOCTYPE svg PUBLIC "-//W3C//DTD SVG 1.1//EN" "http://www.w3.org/Graphics/SVG/1.1/DTD/svg11.dtd"><svg t="1653305270548" class="icon" viewBox="0 0 1024 1024" version="1.1" xmlns="http://www.w3.org/2000/svg" p-id="1728" xmlns:xlink="http://www.w3.org/1999/xlink" width="200" height="200"><defs><style type="text/css">@font-face { font-family: feedback-iconfont; src: url("//at.alicdn.com/t/font_1031158_u69w8yhxdu.woff2?t=1630033759944") format("woff2"), url("//at.alicdn.com/t/font_1031158_u69w8yhxdu.woff?t=1630033759944") format("woff"), url("//at.alicdn.com/t/font_1031158_u69w8yhxdu.ttf?t=1630033759944") format("truetype"); }
</style></defs><path d="M870.4 691.2h-153.6a76.8 76.8 0 0 1-76.8-76.8V379.904a176.64 176.64 0 0 0 51.2-123.904 179.2 179.2 0 0 0-358.4 0 175.616 175.616 0 0 0 51.2 123.904V614.4A76.8 76.8 0 0 1 307.2 691.2H153.6a25.6 25.6 0 0 0-25.6 25.6v204.8a25.6 25.6 0 0 0 25.6 25.6h716.8a25.6 25.6 0 0 0 25.6-25.6v-204.8a25.6 25.6 0 0 0-25.6-25.6z m-358.4-563.2A128 128 0 0 1 640 256a124.928 124.928 0 0 1-43.008 95.232 130.048 130.048 0 0 1-130.56 23.552 119.296 119.296 0 0 1-39.936-24.064A124.416 124.416 0 0 1 384 256 128 128 0 0 1 512 128z m332.8 768h-665.6v-153.6H307.2A128 128 0 0 0 435.2 614.4V417.792h5.12a161.792 161.792 0 0 0 26.624 8.704l7.68 2.56a172.544 172.544 0 0 0 74.752 0l7.68-2.56a161.792 161.792 0 0 0 26.624-8.704h5.12V614.4a128 128 0 0 0 128 128h128z" p-id="1729"></path></svg>