<?xml version="1.0" standalone="no"?><!DOCTYPE svg PUBLIC "-//W3C//DTD SVG 1.1//EN" "http://www.w3.org/Graphics/SVG/1.1/DTD/svg11.dtd"><svg t="1652790076234" class="icon" viewBox="0 0 1024 1024" version="1.1" xmlns="http://www.w3.org/2000/svg" p-id="16176" xmlns:xlink="http://www.w3.org/1999/xlink" width="32" height="32"><defs><style type="text/css">@font-face { font-family: feedback-iconfont; src: url("//at.alicdn.com/t/font_1031158_u69w8yhxdu.woff2?t=1630033759944") format("woff2"), url("//at.alicdn.com/t/font_1031158_u69w8yhxdu.woff?t=1630033759944") format("woff"), url("//at.alicdn.com/t/font_1031158_u69w8yhxdu.ttf?t=1630033759944") format("truetype"); }
</style></defs><path d="M493.583059 573.590588a40.026353 40.026353 0 0 1-40.026353-40.026353V253.44a40.026353 40.026353 0 0 1 80.037647 0v240.128h120.064a40.026353 40.026353 0 0 1 0 80.037647h-160.075294z m472.425412 99.764706a39.905882 39.905882 0 0 1-39.710118 36.924235 45.643294 45.643294 0 0 1-39.68-42.646588s27.181176-36.743529 27.181176-154.081882c0-221.018353-179.184941-400.203294-400.218353-400.203294-221.018353 0-400.203294 179.184941-400.203294 400.203294 0 221.033412 179.184941 400.218353 400.203294 400.218353 117.112471 0 160.090353-30.162824 160.090353-30.162824 3.011765-1.882353 53.534118-12.589176 44.769883 39.544471a55.582118 55.582118 0 0 1-44.769883 42.736941c-212.224 75.595294-448.496941-5.933176-568.922353-196.336941C-15.676235 579.162353 11.896471 330.736941 171.143529 171.369412 330.390588 12.016941 578.785882-15.721412 769.28 104.568471c190.479059 120.289882 272.173176 356.517647 196.728471 568.786823z m-96.060236 64.692706a40.026353 40.026353 0 1 1-28.265411 11.700706 40.026353 40.026353 0 0 1 28.355764-11.700706h-0.090353z" fill="#428EFF" p-id="16177"></path></svg>