<?xml version="1.0" standalone="no"?><!DOCTYPE svg PUBLIC "-//W3C//DTD SVG 1.1//EN" "http://www.w3.org/Graphics/SVG/1.1/DTD/svg11.dtd"><svg t="1653305246084" class="icon" viewBox="0 0 1024 1024" version="1.1" xmlns="http://www.w3.org/2000/svg" p-id="1302" xmlns:xlink="http://www.w3.org/1999/xlink" width="200" height="200"><defs><style type="text/css">@font-face { font-family: feedback-iconfont; src: url("//at.alicdn.com/t/font_1031158_u69w8yhxdu.woff2?t=1630033759944") format("woff2"), url("//at.alicdn.com/t/font_1031158_u69w8yhxdu.woff?t=1630033759944") format("woff"), url("//at.alicdn.com/t/font_1031158_u69w8yhxdu.ttf?t=1630033759944") format("truetype"); }
</style></defs><path d="M830.464 947.2H193.536a116.736 116.736 0 0 1-116.736-116.736V193.536A116.736 116.736 0 0 1 193.536 76.8h636.928a116.736 116.736 0 0 1 116.736 116.736v636.928a116.736 116.736 0 0 1-116.736 116.736zM193.536 128A65.536 65.536 0 0 0 128 193.536v636.928a65.536 65.536 0 0 0 65.536 65.536h636.928a65.536 65.536 0 0 0 65.536-65.536V193.536a65.536 65.536 0 0 0-65.536-65.536z m136.192 649.216a105.472 105.472 0 0 1-73.728-30.72 107.52 107.52 0 0 1-31.232-75.264A105.472 105.472 0 0 1 256 596.48l59.392-59.392a248.32 248.32 0 0 1-10.24-70.656 256 256 0 0 1 256-252.928 244.224 244.224 0 0 1 86.528 15.36 24.576 24.576 0 0 1 15.872 18.432 27.136 27.136 0 0 1-7.168 23.552l-68.608 65.024A54.784 54.784 0 0 0 665.6 413.184l73.728-73.728a26.112 26.112 0 0 1 21.504-7.168 25.6 25.6 0 0 1 18.944 13.312 247.808 247.808 0 0 1 30.72 120.832 256 256 0 0 1-252.928 256 249.856 249.856 0 0 1-102.4-22.528l-48.64 51.2a105.472 105.472 0 0 1-76.8 26.112z m227.84-512a204.8 204.8 0 0 0-202.24 201.216 192 192 0 0 0 12.288 68.608 25.6 25.6 0 0 1-6.144 27.136l-70.144 70.144a54.784 54.784 0 0 0-16.384 38.912 51.2 51.2 0 0 0 16.384 38.912 54.272 54.272 0 0 0 77.312 0l61.952-61.952a26.624 26.624 0 0 1 30.72-4.608 197.12 197.12 0 0 0 96.256 25.088 204.8 204.8 0 0 0 201.728-204.8 192.512 192.512 0 0 0-10.24-64l-47.616 47.104a105.472 105.472 0 0 1-149.504 0 102.4 102.4 0 0 1-31.232-74.752 105.472 105.472 0 0 1 30.72-75.264l33.28-33.28a234.496 234.496 0 0 0-27.136 1.024z" p-id="1303"></path></svg>