<svg xmlns="http://www.w3.org/2000/svg" viewBox="0 0 20 20"><defs><style>.cls-1{fill:#fff;opacity:0;}.cls-2{fill:none;stroke:currentColor;stroke-linecap:round;stroke-linejoin:round;}</style></defs><title>事务内容svg</title><g id="图层_2" data-name="图层 2"><g id="事务内容"><rect class="cls-1" width="20" height="20"/><path class="cls-2" d="M18.62,5.9V17.11a.84.84,0,0,1-.84.83h-.14a1.81,1.81,0,0,1-.88-.26A4.41,4.41,0,0,0,14.38,17a4.54,4.54,0,0,0-2,.43,4.53,4.53,0,0,1-2,.5H9.59a3.81,3.81,0,0,1-1.68-.43A4.76,4.76,0,0,0,5.76,17a4.75,4.75,0,0,0-2.48.68,1.69,1.69,0,0,1-.85.25H2.22a.84.84,0,0,1-.84-.83V5.9A4.14,4.14,0,0,1,5.76,2.06,4.14,4.14,0,0,1,10.14,5.9a4,4,0,0,1,4.24-3.84A4,4,0,0,1,18.62,5.9Z"/><line class="cls-2" x1="10.14" y1="5.9" x2="10.14" y2="14.8"/></g></g></svg>