<?xml version="1.0" standalone="no"?><!DOCTYPE svg PUBLIC "-//W3C//DTD SVG 1.1//EN" "http://www.w3.org/Graphics/SVG/1.1/DTD/svg11.dtd"><svg t="1632369618598" class="icon" viewBox="0 0 1024 1024" version="1.1" xmlns="http://www.w3.org/2000/svg" p-id="3185" xmlns:xlink="http://www.w3.org/1999/xlink" width="200" height="200"><defs><style type="text/css"></style></defs><path d="M504.992 78.24A445.952 445.952 0 0 0 57.184 526.08c0 248.736 199.04 447.808 447.808 447.808A445.984 445.984 0 0 0 952.832 526.08 445.952 445.952 0 0 0 504.992 78.24z m0 864.832c-231.648 0-416.96-185.312-416.96-416.992S273.376 109.088 504.992 109.088c231.68 0 416.992 185.312 416.992 416.992a415.2 415.2 0 0 1-416.992 416.992z m-5.152-439.776c61.888 0 108.256-45.376 108.256-100.864s-46.368-100.896-108.256-100.896c-61.824 0-108.224 45.376-108.224 100.896 0 55.488 51.552 100.864 108.224 100.864z m25.792 35.328h-51.52s-51.552 0-77.344 35.328c-15.456 20.192-36.064 100.864-46.368 136.192v10.048c-5.152 15.2 5.152 25.248 20.608 25.248h278.368c5.12 5.056 15.424-5.056 15.424-20.192v-5.056c-10.304-35.328-36.096-120.992-51.552-141.248-25.76-40.32-87.616-40.32-87.616-40.32z" p-id="3186"></path></svg>