<?xml version="1.0" standalone="no"?><!DOCTYPE svg PUBLIC "-//W3C//DTD SVG 1.1//EN" "http://www.w3.org/Graphics/SVG/1.1/DTD/svg11.dtd"><svg t="1631688612036" class="icon" viewBox="0 0 1024 1024" version="1.1" xmlns="http://www.w3.org/2000/svg" p-id="3031" xmlns:xlink="http://www.w3.org/1999/xlink" width="200" height="200"><defs><style type="text/css"></style></defs><path d="M445.6 944H190.4C139.4 944 98 903.2 98 853.2V136.8C98 86.8 139.4 46 190.4 46h571.2c51 0 92.4 40.8 92.4 90.8v412.6c0 13.2-10.8 24-24 24s-24-10.8-24-24V136.8c0-23.6-20-42.8-44.4-42.8H190.4C166 94 146 113.2 146 136.8v716.4c0 23.6 20 42.8 44.4 42.8h255.2c13.2 0 24 10.8 24 24s-10.8 24-24 24zM901.8 956c0-99.4-79.2-180-176.8-180S548 856.6 548 956" p-id="3032"></path><path d="M646.2 716a80 78.6 90 1 0 157.2 0 80 78.6 90 1 0-157.2 0Z" p-id="3033"></path><path d="M690 422H264c-7.8 0-14-6.2-14-14s6.2-14 14-14h426c7.8 0 14 6.2 14 14s-6.2 14-14 14zM548 598.4l-284-1c-7.8 0-14-6.4-14-14 0-7.8 6.2-14 14-14l284 1c7.8 0 14 6.4 14 14 0 7.8-6.2 14-14 14z" p-id="3034"></path><path d="M690 244H264c-7.8 0-14-6.2-14-14s6.2-14 14-14h426c7.8 0 14 6.2 14 14s-6.2 14-14 14z" p-id="3035"></path></svg>