<?xml version="1.0" standalone="no"?><!DOCTYPE svg PUBLIC "-//W3C//DTD SVG 1.1//EN" "http://www.w3.org/Graphics/SVG/1.1/DTD/svg11.dtd"><svg t="1630303111035" class="icon" viewBox="0 0 1024 1024" version="1.1" xmlns="http://www.w3.org/2000/svg" p-id="4925" xmlns:xlink="http://www.w3.org/1999/xlink" width="200" height="200"><defs><style type="text/css"></style></defs><path d="M704 832v64H320v-64h384z m128-704a64 64 0 0 1 64 64v448a64 64 0 0 1-64 64H192a64 64 0 0 1-64-64V192a64 64 0 0 1 64-64z m0 64H192v448h640V192z m-152.192 124.352l45.248 45.248L544 542.72 408.32 406.912 317.76 497.408l-45.248-45.248 135.744-135.808L544 452.16l135.808-135.808z" p-id="4926"></path></svg>