<?xml version="1.0" standalone="no"?><!DOCTYPE svg PUBLIC "-//W3C//DTD SVG 1.1//EN" "http://www.w3.org/Graphics/SVG/1.1/DTD/svg11.dtd"><svg t="1647915225092" class="icon" viewBox="0 0 1024 1024" version="1.1" xmlns="http://www.w3.org/2000/svg" p-id="1967" xmlns:xlink="http://www.w3.org/1999/xlink" width="200" height="200"><defs><style type="text/css">@font-face { font-family: feedback-iconfont; src: url("//at.alicdn.com/t/font_1031158_u69w8yhxdu.woff2?t=1630033759944") format("woff2"), url("//at.alicdn.com/t/font_1031158_u69w8yhxdu.woff?t=1630033759944") format("woff"), url("//at.alicdn.com/t/font_1031158_u69w8yhxdu.ttf?t=1630033759944") format("truetype"); }
</style></defs><path d="M160 672H144a16 16 0 0 0 0 32h16a16 16 0 0 0 0-32zM240 672h-16a16 16 0 0 0 0 32h16a16 16 0 0 0 0-32zM304 672a16 16 0 0 0 0 32h16a16 16 0 0 0 0-32zM160 736H144a16 16 0 0 0 0 32h16a16 16 0 0 0 0-32zM240 736h-16a16 16 0 0 0 0 32h16a16 16 0 0 0 0-32zM320 768a16 16 0 0 0 0-32h-16a16 16 0 0 0 0 32zM160 800H144a16 16 0 0 0 0 32h16a16 16 0 0 0 0-32zM240 800h-16a16 16 0 0 0 0 32h16a16 16 0 0 0 0-32zM336 816a16 16 0 0 0-32 0v64a16 16 0 0 0 32 0zM160 864H144a16 16 0 0 0 0 32h16a16 16 0 0 0 0-32zM240 864h-16a16 16 0 0 0 0 32h16a16 16 0 0 0 0-32z" p-id="1968"></path><path d="M128 544m16 0l176 0q16 0 16 16l0 64q0 16-16 16l-176 0q-16 0-16-16l0-64q0-16 16-16Z" p-id="1969"></path><path d="M948.16 686.56a196.96 196.96 0 0 0-33.92-60.64L795.52 480l-20.64-25.6 37.28 9.28a16 16 0 0 0 19.84-11.84 16 16 0 0 0-12.16-19.84L784 423.36l28-28a16 16 0 0 0-22.72-22.72l-23.84 24L800 293.12a19.04 19.04 0 0 0 0-5.12v-8a16 16 0 0 0-16-16 65.28 65.28 0 0 0-36 10.08 33.44 33.44 0 0 1-20 5.92 33.76 33.76 0 0 1-20-5.92L704 272v-64h144a16 16 0 0 0 16-16v-32a96 96 0 0 0-96-96H160a96 96 0 0 0-96 96v736a64 64 0 0 0 64 64h272a64 64 0 0 0 60.96-44.64 204.16 204.16 0 0 0 128 44.64H880a16 16 0 0 0 16-16v-40.48a204.16 204.16 0 0 0 52.16-216.96zM608 720a16 16 0 0 1 0-32h32a16 16 0 0 0 0-32 48 48 0 0 1-16-93.12V544a16 16 0 0 1 32 0v16h16a16 16 0 0 1 0 32h-32a16 16 0 0 0 0 32 48 48 0 0 1 16 93.12V736a16 16 0 0 1-32 0v-16z m160 48h96v32h-96z m-144 104a56 56 0 1 1 56 56 56 56 0 0 1-56-56z m144-40h96v32h-96zM96 160a64 64 0 0 1 64-64h536.48l-1.28 1.44a24.96 24.96 0 0 0-2.56 3.2 34.24 34.24 0 0 0-3.04 4.16 41.76 41.76 0 0 0-3.2 4.8c-0.96 1.44-1.76 2.88-2.56 4.32a22.24 22.24 0 0 0-1.76 3.36 64 64 0 0 0-3.36 7.52c0 1.44-1.12 2.88-1.6 4.32l-0.96 3.2a61.44 61.44 0 0 0-2.56 10.72 32 32 0 0 0-0.8 5.6A66.72 66.72 0 0 0 672 160v104a64 64 0 0 0-35.84 10.08 36.8 36.8 0 0 1-40 0A65.28 65.28 0 0 0 560 264a16 16 0 0 0-16 16v8a19.04 19.04 0 0 0 0 5.12l41.28 124a16 16 0 0 0-6.72 24.64l-5.12 6.24-25.76 32L464 583.84V544a64 64 0 0 0-64-64H128a52.32 52.32 0 0 0-8.64 0 49.92 49.92 0 0 0-7.04 1.44 8.48 8.48 0 0 0-1.92 0l-4.64 1.6-4.48 1.76-5.28 3.84z m0 736V544a32 32 0 0 1 32-32h208a32 32 0 0 1 32 32v352a32 32 0 0 1-32 32H128a32 32 0 0 1-32-32z m768 32h-96v-32h96v32z" p-id="1970"></path><path d="M192 288h-32a16 16 0 0 0 0 32h16v16a16 16 0 0 0 32 0v-18.88A48 48 0 0 0 192 224a16 16 0 0 1 0-32h32a16 16 0 0 0 0-32h-16V144a16 16 0 0 0-32 0v18.88A48 48 0 0 0 192 256a16 16 0 0 1 0 32zM336 192h272a16 16 0 0 0 0-32H336a16 16 0 0 0 0 32zM336 272h128a16 16 0 0 0 0-32h-128a16 16 0 0 0 0 32zM336 352h128a16 16 0 0 0 0-32h-128a16 16 0 0 0 0 32z" p-id="1971"></path></svg>