<?xml version="1.0" standalone="no"?><!DOCTYPE svg PUBLIC "-//W3C//DTD SVG 1.1//EN" "http://www.w3.org/Graphics/SVG/1.1/DTD/svg11.dtd"><svg t="1647952588523" class="icon" viewBox="0 0 1024 1024" version="1.1" xmlns="http://www.w3.org/2000/svg" p-id="26911" xmlns:xlink="http://www.w3.org/1999/xlink" width="200" height="200"><defs><style type="text/css">@font-face { font-family: feedback-iconfont; src: url("//at.alicdn.com/t/font_1031158_u69w8yhxdu.woff2?t=1630033759944") format("woff2"), url("//at.alicdn.com/t/font_1031158_u69w8yhxdu.woff?t=1630033759944") format("woff"), url("//at.alicdn.com/t/font_1031158_u69w8yhxdu.ttf?t=1630033759944") format("truetype"); }
</style></defs><path d="M789.333333 640c-6.4 0-12.8-2.133333-17.066666-8.533333l-106.666667-128c-8.533333-8.533333-6.4-23.466667 2.133333-29.866667 8.533333-8.533333 23.466667-6.4 29.866667 2.133333l89.6 108.8 89.6-108.8c8.533333-8.533333 21.333333-10.666667 29.866667-2.133333 8.533333 8.533333 10.666667 21.333333 2.133333 29.866667l-106.666667 128c0 6.4-6.4 8.533333-12.8 8.533333zM917.333333 768H661.333333c-12.8 0-21.333333-8.533333-21.333333-21.333333s8.533333-21.333333 21.333333-21.333334h256c12.8 0 21.333333 8.533333 21.333334 21.333334s-8.533333 21.333333-21.333334 21.333333z" p-id="26912"></path><path d="M917.333333 640H661.333333c-12.8 0-21.333333-8.533333-21.333333-21.333333s8.533333-21.333333 21.333333-21.333334h256c12.8 0 21.333333 8.533333 21.333334 21.333334s-8.533333 21.333333-21.333334 21.333333z" p-id="26913"></path><path d="M789.333333 896c-12.8 0-21.333333-8.533333-21.333333-21.333333V618.666667c0-12.8 8.533333-21.333333 21.333333-21.333334s21.333333 8.533333 21.333334 21.333334v256c0 12.8-8.533333 21.333333-21.333334 21.333333zM789.333333 384H576c-12.8 0-21.333333-8.533333-21.333333-21.333333s8.533333-21.333333 21.333333-21.333334h213.333333c12.8 0 21.333333 8.533333 21.333334 21.333334s-8.533333 21.333333-21.333334 21.333333z" p-id="26914"></path><path d="M448 678.4H234.666667c-12.8 0-21.333333-8.533333-21.333334-21.333333s8.533333-21.333333 21.333334-21.333334h213.333333c12.8 0 21.333333 8.533333 21.333333 21.333334s-8.533333 21.333333-21.333333 21.333333zM448 774.4H234.666667c-12.8 0-21.333333-8.533333-21.333334-21.333333s8.533333-21.333333 21.333334-21.333334h213.333333c12.8 0 21.333333 8.533333 21.333333 21.333334s-8.533333 21.333333-21.333333 21.333333z" p-id="26915"></path><path d="M448 384H234.666667c-12.8 0-21.333333-8.533333-21.333334-21.333333s8.533333-21.333333 21.333334-21.333334h213.333333c12.8 0 21.333333 8.533333 21.333333 21.333334s-8.533333 21.333333-21.333333 21.333333z" p-id="26916"></path><path d="M341.333333 490.666667c-12.8 0-21.333333-8.533333-21.333333-21.333334V256c0-12.8 8.533333-21.333333 21.333333-21.333333s21.333333 8.533333 21.333334 21.333333v213.333333c0 12.8-8.533333 21.333333-21.333334 21.333334z" p-id="26917"></path><path d="M533.333333 896H149.333333c-36.266667 0-64-27.733333-64-64V192c0-36.266667 27.733333-64 64-64h725.333334c36.266667 0 64 27.733333 64 64v170.666667c0 12.8-8.533333 21.333333-21.333334 21.333333s-21.333333-8.533333-21.333333-21.333333V192c0-12.8-8.533333-21.333333-21.333333-21.333333H149.333333c-12.8 0-21.333333 8.533333-21.333333 21.333333v640c0 12.8 8.533333 21.333333 21.333333 21.333333h384c12.8 0 21.333333 8.533333 21.333334 21.333334s-8.533333 21.333333-21.333334 21.333333z" p-id="26918"></path></svg>