<?xml version="1.0" standalone="no"?><!DOCTYPE svg PUBLIC "-//W3C//DTD SVG 1.1//EN" "http://www.w3.org/Graphics/SVG/1.1/DTD/svg11.dtd"><svg t="1630911789691" class="icon" viewBox="0 0 1024 1024" version="1.1" xmlns="http://www.w3.org/2000/svg" p-id="4414" xmlns:xlink="http://www.w3.org/1999/xlink" width="200" height="200"><defs><style type="text/css"></style></defs><path d="M877.713958 0.000488q14.847986 0 25.746262 10.825133t10.825133 25.746262l0 950.85626q0 14.847986-10.825133 25.746262t-25.746262 10.825133l-731.427892 0q-14.847986 0-25.746262-10.825133t-10.825133-25.746262l0-950.85626q0-14.847986 10.825133-25.746262t25.746262-10.825133l731.427892 0zM402.285828 164.571763l0 36.571395q0 7.972564 5.119995 13.165702t13.165702 5.119995l36.571395 0q7.972564 0 13.165702-5.119995t5.119995-13.165702l0-36.571395q0-7.972564-5.119995-13.165702t-13.165702-5.119995l-36.571395 0q-7.972564 0-13.165702 5.119995t-5.119995 13.165702zM402.285828 310.857342l0 36.571395q0 7.972564 5.119995 13.165702t13.165702 5.119995l36.571395 0q7.972564 0 13.165702-5.119995t5.119995-13.165702l0-36.571395q0-7.972564-5.119995-13.165702t-13.165702-5.119995l-36.571395 0q-7.972564 0-13.165702 5.119995t-5.119995 13.165702zM402.285828 457.14292l0 36.571395q0 7.972564 5.119995 13.165702t13.165702 5.119995l36.571395 0q7.972564 0 13.165702-5.119995t5.119995-13.165702l0-36.571395q0-7.972564-5.119995-13.165702t-13.165702-5.119995l-36.571395 0q-7.972564 0-13.165702 5.119995t-5.119995 13.165702zM402.285828 603.428499l0 36.571395q0 7.972564 5.119995 13.165702t13.165702 5.119995l36.571395 0q7.972564 0 13.165702-5.119995t5.119995-13.165702l0-36.571395q0-7.972564-5.119995-13.165702t-13.165702-5.119995l-36.571395 0q-7.972564 0-13.165702 5.119995t-5.119995 13.165702zM329.143039 786.285472l0-36.571395q0-7.972564-5.119995-13.165702t-13.165702-5.119995l-36.571395 0q-7.972564 0-13.165702 5.119995t-5.119995 13.165702l0 36.571395q0 7.972564 5.119995 13.165702t13.165702 5.119995l36.571395 0q7.972564 0 13.165702-5.119995t5.119995-13.165702zM329.143039 639.999893l0-36.571395q0-7.972564-5.119995-13.165702t-13.165702-5.119995l-36.571395 0q-7.972564 0-13.165702 5.119995t-5.119995 13.165702l0 36.571395q0 7.972564 5.119995 13.165702t13.165702 5.119995l36.571395 0q7.972564 0 13.165702-5.119995t5.119995-13.165702zM329.143039 493.714315l0-36.571395q0-7.972564-5.119995-13.165702t-13.165702-5.119995l-36.571395 0q-7.972564 0-13.165702 5.119995t-5.119995 13.165702l0 36.571395q0 7.972564 5.119995 13.165702t13.165702 5.119995l36.571395 0q7.972564 0 13.165702-5.119995t5.119995-13.165702zM329.143039 347.428736l0-36.571395q0-7.972564-5.119995-13.165702t-13.165702-5.119995l-36.571395 0q-7.972564 0-13.165702 5.119995t-5.119995 13.165702l0 36.571395q0 7.972564 5.119995 13.165702t13.165702 5.119995l36.571395 0q7.972564 0 13.165702-5.119995t5.119995-13.165702zM329.143039 201.143158l0-36.571395q0-7.972564-5.119995-13.165702t-13.165702-5.119995l-36.571395 0q-7.972564 0-13.165702 5.119995t-5.119995 13.165702l0 36.571395q0 7.972564 5.119995 13.165702t13.165702 5.119995l36.571395 0q7.972564 0 13.165702-5.119995t5.119995-13.165702zM621.714196 932.57105l0-109.714184q0-7.972564-5.119995-13.165702t-13.165702-5.119995l-182.856973 0q-7.972564 0-13.165702 5.119995t-5.119995 13.165702l0 109.714184q0 7.972564 5.119995 13.165702t13.165702 5.119995l182.856973 0q7.972564 0 13.165702-5.119995t5.119995-13.165702zM621.714196 639.999893l0-36.571395q0-7.972564-5.119995-13.165702t-13.165702-5.119995l-36.571395 0q-7.972564 0-13.165702 5.119995t-5.119995 13.165702l0 36.571395q0 7.972564 5.119995 13.165702t13.165702 5.119995l36.571395 0q7.972564 0 13.165702-5.119995t5.119995-13.165702zM621.714196 493.714315l0-36.571395q0-7.972564-5.119995-13.165702t-13.165702-5.119995l-36.571395 0q-7.972564 0-13.165702 5.119995t-5.119995 13.165702l0 36.571395q0 7.972564 5.119995 13.165702t13.165702 5.119995l36.571395 0q7.972564 0 13.165702-5.119995t5.119995-13.165702zM621.714196 347.428736l0-36.571395q0-7.972564-5.119995-13.165702t-13.165702-5.119995l-36.571395 0q-7.972564 0-13.165702 5.119995t-5.119995 13.165702l0 36.571395q0 7.972564 5.119995 13.165702t13.165702 5.119995l36.571395 0q7.972564 0 13.165702-5.119995t5.119995-13.165702zM621.714196 201.143158l0-36.571395q0-7.972564-5.119995-13.165702t-13.165702-5.119995l-36.571395 0q-7.972564 0-13.165702 5.119995t-5.119995 13.165702l0 36.571395q0 7.972564 5.119995 13.165702t13.165702 5.119995l36.571395 0q7.972564 0 13.165702-5.119995t5.119995-13.165702zM767.999774 786.285472l0-36.571395q0-7.972564-5.119995-13.165702t-13.165702-5.119995l-36.571395 0q-7.972564 0-13.165702 5.119995t-5.119995 13.165702l0 36.571395q0 7.972564 5.119995 13.165702t13.165702 5.119995l36.571395 0q7.972564 0 13.165702-5.119995t5.119995-13.165702zM767.999774 639.999893l0-36.571395q0-7.972564-5.119995-13.165702t-13.165702-5.119995l-36.571395 0q-7.972564 0-13.165702 5.119995t-5.119995 13.165702l0 36.571395q0 7.972564 5.119995 13.165702t13.165702 5.119995l36.571395 0q7.972564 0 13.165702-5.119995t5.119995-13.165702zM767.999774 493.714315l0-36.571395q0-7.972564-5.119995-13.165702t-13.165702-5.119995l-36.571395 0q-7.972564 0-13.165702 5.119995t-5.119995 13.165702l0 36.571395q0 7.972564 5.119995 13.165702t13.165702 5.119995l36.571395 0q7.972564 0 13.165702-5.119995t5.119995-13.165702zM767.999774 347.428736l0-36.571395q0-7.972564-5.119995-13.165702t-13.165702-5.119995l-36.571395 0q-7.972564 0-13.165702 5.119995t-5.119995 13.165702l0 36.571395q0 7.972564 5.119995 13.165702t13.165702 5.119995l36.571395 0q7.972564 0 13.165702-5.119995t5.119995-13.165702zM767.999774 201.143158l0-36.571395q0-7.972564-5.119995-13.165702t-13.165702-5.119995l-36.571395 0q-7.972564 0-13.165702 5.119995t-5.119995 13.165702l0 36.571395q0 7.972564 5.119995 13.165702t13.165702 5.119995l36.571395 0q7.972564 0 13.165702-5.119995t5.119995-13.165702z" p-id="4415"></path></svg>