<?xml version="1.0" standalone="no"?><!DOCTYPE svg PUBLIC "-//W3C//DTD SVG 1.1//EN" "http://www.w3.org/Graphics/SVG/1.1/DTD/svg11.dtd"><svg t="1631764226887" class="icon" viewBox="0 0 1024 1024" version="1.1" xmlns="http://www.w3.org/2000/svg" p-id="20160" xmlns:xlink="http://www.w3.org/1999/xlink" width="200" height="200"><defs><style type="text/css"></style></defs><path d="M32 0v1024" p-id="20161"></path><path d="M64 0v1024" p-id="20162"></path><path d="M96 0v1024" p-id="20163"></path><path d="M128 0v1024" p-id="20164"></path><path d="M160 0v1024" p-id="20165"></path><path d="M192 0v1024" p-id="20166"></path><path d="M224 0v1024" p-id="20167"></path><path d="M256 0v1024" p-id="20168"></path><path d="M288 0v1024" p-id="20169"></path><path d="M320 0v1024" p-id="20170"></path><path d="M352 0v1024" p-id="20171"></path><path d="M384 0v1024" p-id="20172"></path><path d="M416 0v1024" p-id="20173"></path><path d="M448 0v1024" p-id="20174"></path><path d="M480 0v1024" p-id="20175"></path><path d="M512 0v1024" p-id="20176"></path><path d="M544 0v1024" p-id="20177"></path><path d="M576 0v1024" p-id="20178"></path><path d="M608 0v1024" p-id="20179"></path><path d="M640 0v1024" p-id="20180"></path><path d="M672 0v1024" p-id="20181"></path><path d="M704 0v1024" p-id="20182"></path><path d="M736 0v1024" p-id="20183"></path><path d="M768 0v1024" p-id="20184"></path><path d="M800 0v1024" p-id="20185"></path><path d="M832 0v1024" p-id="20186"></path><path d="M864 0v1024" p-id="20187"></path><path d="M896 0v1024" p-id="20188"></path><path d="M928 0v1024" p-id="20189"></path><path d="M960 0v1024" p-id="20190"></path><path d="M992 0v1024M0 32h1024" p-id="20191"></path><path d="M0 64h1024" p-id="20192"></path><path d="M0 96h1024" p-id="20193"></path><path d="M0 128h1024" p-id="20194"></path><path d="M0 160h1024" p-id="20195"></path><path d="M0 192h1024" p-id="20196"></path><path d="M0 224h1024" p-id="20197"></path><path d="M0 256h1024" p-id="20198"></path><path d="M0 288h1024" p-id="20199"></path><path d="M0 320h1024" p-id="20200"></path><path d="M0 352h1024" p-id="20201"></path><path d="M0 384h1024" p-id="20202"></path><path d="M0 416h1024" p-id="20203"></path><path d="M0 448h1024" p-id="20204"></path><path d="M0 480h1024" p-id="20205"></path><path d="M0 512h1024" p-id="20206"></path><path d="M0 544h1024" p-id="20207"></path><path d="M0 576h1024" p-id="20208"></path><path d="M0 608h1024" p-id="20209"></path><path d="M0 640h1024" p-id="20210"></path><path d="M0 672h1024" p-id="20211"></path><path d="M0 704h1024" p-id="20212"></path><path d="M0 736h1024" p-id="20213"></path><path d="M0 768h1024" p-id="20214"></path><path d="M0 800h1024" p-id="20215"></path><path d="M0 832h1024" p-id="20216"></path><path d="M0 864h1024" p-id="20217"></path><path d="M0 896h1024" p-id="20218"></path><path d="M0 928h1024" p-id="20219"></path><path d="M0 960h1024" p-id="20220"></path><path d="M0 992h1024" p-id="20221"></path><path d="M853.558 959.736H170.544c-3.586 0-7.104-0.198-10.556-0.592-2.762-0.328-5.92-0.854-9.142-1.448a100.146 100.146 0 0 1-10.128-2.828 74.988 74.988 0 0 1-8.878-3.42c-2.896-1.316-5.852-2.76-8.682-4.404a142.98 142.98 0 0 1-7.956-5.064c-2.498-1.774-5.064-3.88-7.564-6.052a91.786 91.786 0 0 1-6.71-6.378 119.47 119.47 0 0 1-6.246-7.236c-1.906-2.366-3.716-4.996-5.492-7.76a92.736 92.736 0 0 1-4.768-8.484c-1.514-2.826-2.73-5.59-3.946-8.484-1.48-3.748-2.532-6.84-3.42-9.996a88.546 88.546 0 0 1-2.368-9.736 89.49 89.49 0 0 1-1.412-9.866 95.348 95.348 0 0 1-0.526-9.996V302.762c0-3.486 0.196-6.938 0.558-10.292 0.264-3.19 0.79-6.544 1.414-9.866 0.558-3.288 1.48-6.774 2.466-10.062a91.496 91.496 0 0 1 2.992-8.68c1.48-3.552 2.696-6.282 4.046-8.946 1.71-3.288 3.32-6.116 5.13-8.878a111.736 111.736 0 0 1 5.492-7.694c1.94-2.434 3.912-4.77 6.016-6.972 2.564-2.632 4.802-4.834 7.234-6.906 2.04-1.842 4.668-3.88 7.4-5.82a117.03 117.03 0 0 1 7.728-4.966 80.996 80.996 0 0 1 8.746-4.438 108.542 108.542 0 0 1 9.044-3.518 88.658 88.658 0 0 1 9.634-2.564 96.56 96.56 0 0 1 9.866-1.644c3.32-0.296 6.642-0.46 10.028-0.46h59.418c14.272 0 25.812 11.508 25.812 25.78 0 14.238-11.54 19.566-25.812 19.566H164.328c-1.544 0-3.158 0.098-4.67 0.23-1.514 0.164-2.96 0.428-4.374 0.724-1.51 0.328-2.992 0.756-4.406 1.216a57.9 57.9 0 0 0-4.11 1.612c-1.25 0.526-2.564 1.182-3.816 1.908-1.182 0.724-2.498 1.544-3.748 2.432-1.414 0.986-2.5 1.808-3.552 2.696-1.578 1.38-2.632 2.5-3.684 3.616a39.372 39.372 0 0 0-2.96 3.486c-0.986 1.152-1.776 2.368-2.63 3.684-1.052 1.578-1.71 2.958-2.5 4.308-0.626 1.316-1.38 2.992-2.106 4.702a107.254 107.254 0 0 0-1.382 4.046c-0.526 1.906-0.918 3.42-1.184 4.866-0.394 1.81-0.592 3.452-0.756 5.132a53.38 53.38 0 0 0-0.296 5.49v561.446c0 1.71 0.1 3.484 0.264 5.13 0.198 1.974 0.462 3.616 0.724 5.196 0.362 1.774 0.722 3.222 1.118 4.67 0.656 2.168 1.216 3.682 1.774 5.26 0.462 0.922 1.184 2.564 1.972 4.144 0.59 1.182 1.314 2.564 2.17 3.816 0.922 1.446 1.776 2.762 2.762 3.944a52.512 52.512 0 0 0 3.092 3.684 77.28 77.28 0 0 0 3.354 3.222 55.24 55.24 0 0 0 3.518 2.828c1.382 0.92 2.564 1.71 3.782 2.366 1.612 0.922 2.896 1.578 4.142 2.106 1.318 0.658 2.564 1.118 3.75 1.512 2.07 0.726 3.55 1.052 4.932 1.38 0.986 0.134 2.564 0.46 4.076 0.658 1.908 0.196 3.32 0.196 4.702 0.196h701.688c1.448 0 2.762 0 4.178-0.196 2.038-0.198 3.584-0.526 5-0.726 1.086-0.264 2.562-0.59 3.98-1.116 1.644-0.528 2.894-0.986 4.01-1.578 1.644-0.722 2.894-1.316 4.144-2.038 1.48-0.856 2.696-1.644 3.946-2.5 1.25-0.922 2.5-1.906 3.682-2.894 0.822-0.788 1.908-1.842 2.926-2.894 1.546-1.578 2.5-2.76 3.452-3.946a51.82 51.82 0 0 0 2.27-3.222c1.28-1.972 2.006-3.222 2.664-4.538 0.726-1.314 1.35-2.76 1.94-4.208 0.756-1.908 1.316-3.42 1.71-4.998 0.428-1.382 0.856-2.96 1.15-4.538 0.362-1.974 0.624-3.684 0.822-5.458 0.164-1.71 0.198-3.484 0.198-5.26V296.55c0-1.774-0.034-3.55-0.198-5.194-0.198-1.774-0.492-3.55-0.754-5.262-0.36-1.774-0.788-3.42-1.25-5.032-0.428-1.282-0.92-2.796-1.546-4.242-0.754-1.974-1.48-3.42-2.17-4.8-0.558-1.182-1.314-2.432-2.138-3.682-1.248-2.038-2.006-3.092-2.826-4.142-0.822-0.988-1.876-2.302-2.994-3.52a50.966 50.966 0 0 0-3.418-3.256 40.062 40.062 0 0 0-3.52-2.794 68.688 68.688 0 0 0-4.178-2.664 45.55 45.55 0 0 0-3.584-1.774 74.574 74.574 0 0 0-4.408-1.71 79.716 79.716 0 0 0-4.044-1.086 48.5 48.5 0 0 0-4.438-0.724 43.012 43.012 0 0 0-4.704-0.23h-65.6c-14.27 0-25.816-5.36-25.816-19.598 0-14.206 11.544-25.78 25.816-25.78h53.206c3.418 0 6.642 0.164 9.996 0.526 3.454 0.33 6.806 0.92 10.028 1.644 2.992 0.592 6.15 1.448 9.14 2.432a111.906 111.906 0 0 1 9.404 3.616 82.512 82.512 0 0 1 8.484 4.34c3.058 1.776 5.656 3.42 8.124 5.194 2.598 1.842 4.998 3.816 7.398 5.854 2.566 2.17 4.9 4.474 7.07 6.776a112.86 112.86 0 0 1 5.918 6.84c2.366 3.026 4.342 5.788 6.116 8.746 1.282 1.908 2.962 4.866 4.538 7.86a92.56 92.56 0 0 1 4.076 9.042 84.72 84.72 0 0 1 3.124 8.912c0.954 3.418 1.808 6.674 2.432 9.964 0.592 3.092 1.054 6.38 1.414 9.734 0.33 3.354 0.494 6.774 0.494 10.292v555.164a106.06 106.06 0 0 1-0.494 10.324c-0.36 3.29-0.822 6.642-1.48 9.932-0.56 3.024-1.414 6.246-2.302 9.472a99.166 99.166 0 0 1-3.354 9.734c-1.02 2.562-2.464 5.59-3.91 8.484a115.956 115.956 0 0 1-5.064 8.812 89.298 89.298 0 0 1-5.294 7.432 99.406 99.406 0 0 1-6.48 7.498c-1.742 1.908-4.076 4.144-6.478 6.246-2.696 2.302-5.13 4.276-7.726 6.116-2.63 1.842-5.326 3.616-8.124 5.196-2.698 1.51-5.59 3.024-8.582 4.34-2.828 1.316-6.052 2.5-9.308 3.552a80.17 80.17 0 0 1-9.042 2.432c-3.518 0.726-6.742 1.316-10.096 1.644a92.304 92.304 0 0 1-9.962 0.528z" p-id="20222"></path><path d="M725.222 253.77l-12.956-47.122c-4.768-19.664-27.556-48.996-71.092-48.996l-22.13 0.064-12.068-0.032c-3.256-12.594-9.504-35.812-12.264-46.134-5.952-22.656-33.408-47.154-67.312-47.22l-16.31-0.064-27.228 0.064c-33.144 0-60.504 24.302-66.818 46.89-2.73 9.864-8.616 33.738-11.706 46.234l-0.068 0.198-12.496-0.064-29.428 0.064c-29.168 0-58.17 26.372-63.63 49.028-2.27 9.502-6.248 19.14-10.786 37.322l-2.402 9.602c-4.274 16.968-0.754 33.868 9.898 47.482 10.818 13.91 28.146 22.49 45.248 22.49l1.446-0.064c14.14-0.394 224.822-0.13 301.11 0h26.898c16.606 0 33.442-8.418 44.16-21.964 10.59-13.484 14.144-30.45 9.932-47.778z m-50.342 15.75c-1.052 1.448-3.126 2.402-3.75 2.434h-26.866c-76.782-0.1-288.318-0.362-302.556 0l-0.034 25.846v-25.846c-0.92 0-3.224-0.856-4.57-2.598-0.69-0.822-0.954-1.546-0.494-3.256l2.368-9.57c4.606-18.348 8.548-28.114 10.458-36.466 1.94-4.112 10.392-10.656 13.942-10.754l29.332-0.032 16.936 0.032c21.868 0 39.296-13.284 44.294-33.736l1.448-5.69c3.024-12.1 8.68-35.218 11.114-44.128 1.25-2.728 8.418-9.8 17.298-9.8l27.294-0.064 16.112 0.034c9.272 0.032 16.64 6.904 17.658 8.912 3.158 11.97 10.918 41.102 13.482 51.034 5.13 19.664 22.622 33.442 42.55 33.442l18.052 0.034 22.692-0.034c16.408 0 20.386 9.568 20.452 9.568l12.99 47.088c0.558 2.436 0.068 3.162-0.196 3.554zM788.556 582.632c-3.452-7.894-9.142-14.074-17.92-15.654-7.53-1.316-15.226-1.774-22.856-1.972-8.254-0.198-8.254 0.064-11.148-7.894-13.448-37.158-26.732-74.38-40.38-111.538-4.836-13.186-13.154-24.004-25.716-30.778-15.126-8.122-31.206-13.91-47.944-17.626-32.552-7.3-65.864-7.036-98.942-8.484-32.686-1.512-65.372 0.394-98.024 3.19-28.31 2.464-55.604 8.318-80.892 22.064-15.226 8.286-25.878 19.796-31.666 36.302-12.924 36.764-26.372 73.396-39.462 110.094-1.25 3.418-2.728 4.932-6.642 4.734-5.92-0.326-11.97-0.198-17.888 0.132-12.89 0.92-22.032 7.3-26.57 19.466-2.96 8.024-5.326 16.178-7.76 24.4-0.396 1.512-0.132 3.352 0.394 4.932 2.402 7.034 7.728 9.732 14.864 9.668h21.438c-0.658 2.038-1.118 3.352-1.512 4.668-3.224 10.456-6.05 21.044-6.086 32.158-0.032 57.742-0.132 115.55-0.164 173.358 0 3.222 0.658 6.446 0.986 9.666h114.432c0.626-14.138 1.25-28.278 1.876-42.746h290.29c0.098 1.578 0.198 3.024 0.198 4.538 0.098 10.456 0 20.782 0.196 31.174 0.034 2.366 0.856 4.736 1.25 7.036h114.47c0.33-3.352 0.856-6.772 0.856-10.128 0.066-55.374 0.23-110.75-0.066-166.124-0.032-9.274-1.38-18.678-2.826-27.884-0.824-5.13-3.026-9.996-4.606-14.928 0.66-0.328 0.89-0.526 1.086-0.526 6.84-0.132 13.678-0.198 20.518-0.264 12.264-0.198 16.936-8.55 13.976-19.796-1.876-7.234-4.736-14.402-7.762-21.24z m-410.082 127.916c-7.532 1.774-15.422 2.368-25.42 3.75-15.848-0.922-33.87-1.514-51.758-3.422-7.168-0.788-14.174-3.88-20.914-6.774-5.786-2.432-7.562-7.956-7.43-13.812 0.196-8.946 0.788-17.888 1.25-26.9 0.394-7.232 4.798-11.31 11.312-13.22 10.456-3.09 20.846-1.708 30.548 2.238 20.388 8.286 40.512 17.296 60.668 26.24 4.9 2.17 8.78 5.722 11.18 10.654 4.21 8.614-0.132 19.138-9.438 21.242z m121.6-115.486c-32.358-2.038-64.778-3.42-97.104-6.316a454.422 454.422 0 0 1-82.206-14.664c-3.452-0.99-4.142-2.106-3.288-5.592 8.484-34.264 19.762-67.672 32.226-100.688 4.734-12.63 13.054-19.334 25.12-23.282 17.988-5.854 36.666-7.956 55.376-9.404 55.868-4.406 111.704-3.944 167.474 2.302 15.192 1.676 30.086 4.21 44.424 9.734 9.106 3.486 15.256 9.438 18.61 18.61 12.528 33.936 24.366 68.002 33.278 103.054 0.854 3.616 0.064 4.604-3.288 5.458-27.918 7.236-56.394 10.982-84.938 14.6-35.052 4.342-70.302 5.852-105.686 6.182z m238.27 98.978c-0.886 7.038-5.59 10.85-12.002 12.956-12.596 3.946-25.35 6.576-39.754 5.59-13.712 0-28.576 0.196-43.438-0.132-4.174-0.13-8.582-1.052-12.332-2.696-10.092-4.736-12-17.362-3.716-24.86 4.342-3.946 9.37-7.696 14.764-9.932 20.716-8.682 41.564-16.902 62.542-24.794 7.76-2.958 15.98-2.038 23.842 0.396 4.572 1.448 7.498 4.472 8.65 9.208 2.894 11.312 2.894 22.82 1.448 34.264z" p-id="20223"></path></svg>