<?xml version="1.0" standalone="no"?><!DOCTYPE svg PUBLIC "-//W3C//DTD SVG 1.1//EN" "http://www.w3.org/Graphics/SVG/1.1/DTD/svg11.dtd"><svg t="1632369315013" class="icon" viewBox="0 0 1024 1024" version="1.1" xmlns="http://www.w3.org/2000/svg" p-id="2095" xmlns:xlink="http://www.w3.org/1999/xlink" width="200" height="200"><defs><style type="text/css"></style></defs><path d="M156.693333 45.354667C141.312 50.090667 128 68.650667 128 85.333333c0 17.152 13.312 35.285333 29.418667 40.064C165.12 127.68 207.36 128 512 128c304.64 0 346.88-0.32 354.581333-2.602667C882.688 120.618667 896 102.485333 896 85.333333c0-17.152-13.312-35.285333-29.418667-40.064-7.701333-2.304-49.792-2.581333-355.328-2.474666-296.618667 0.085333-347.712 0.469333-354.56 2.56m8.405334 128.021333c-57.365333 10.368-105.024 55.914667-118.549334 113.344-2.837333 11.946667-3.029333 30.336-3.029333 279.04V832l3.861333 14.506667c13.546667 50.922667 49.450667 89.322667 99.392 106.282666l16.213334 5.504h698.026666l16.597334-5.738666c49.706667-17.237333 85.866667-55.936 99.050666-106.048l3.818667-14.506667V566.613333c0-215.381333-0.426667-267.477333-2.282667-276.48-12.224-59.178667-61.077333-106.474667-120.682666-116.864-12.970667-2.282667-57.066667-2.581333-347.008-2.453333-277.248 0.128-334.357333 0.554667-345.408 2.56m686.293333 85.824a64.213333 64.213333 0 0 1 33.194667 24.512c12.245333 18.048 11.498667-0.832 11.008 285.589333l-0.448 257.642667-5.589334 11.370667a64.768 64.768 0 0 1-48.938666 35.712c-6.186667 0.96-140.821333 1.408-336.298667 1.109333L178.346667 874.666667l-11.392-5.397334c-15.253333-7.232-25.749333-17.237333-32.554667-31.04l-5.546667-11.285333-0.448-257.642667c-0.490667-286.421333-1.237333-267.541333 11.008-285.589333a64.853333 64.853333 0 0 1 32.618667-24.426667c9.258667-2.944 25.344-3.114667 339.392-3.2 318.037333-0.085333 330.026667 0.021333 339.968 3.114667m-485.248 65.173333a45.568 45.568 0 0 0-20.224 19.52c-5.098667 9.578667-5.077333 28.032 0.042667 37.546667 2.026667 3.754667 26.389333 29.482667 54.144 57.152 27.754667 27.690667 50.453333 50.901333 50.453333 51.562667 0 0.682667-22.912 1.450667-50.901333 1.728l-50.922667 0.490666-8.341333 5.162667c-5.184 3.2-10.325333 8.341333-13.525334 13.525333-4.650667 7.509333-5.162667 9.749333-5.162666 22.272s0.512 14.762667 5.162666 22.272c3.2 5.184 8.341333 10.325333 13.525334 13.525334l8.341333 5.162666 60.309333 0.490667 60.288 0.490667v44.117333l-60.288 0.490667-60.309333 0.490666-8.341333 5.162667c-5.184 3.2-10.325333 8.341333-13.525334 13.525333-4.650667 7.509333-5.162667 9.749333-5.162666 22.272s0.512 14.762667 5.162666 22.272c3.2 5.184 8.341333 10.325333 13.525334 13.525334l8.341333 5.162666 60.309333 0.490667 60.288 0.490667v34.602666c0 41.770667 1.429333 48.341333 12.928 59.861334 7.808 7.786667 19.605333 12.928 29.738667 12.928 10.133333 0 21.930667-5.141333 29.738667-12.928 11.498667-11.52 12.928-18.090667 12.928-59.861334v-34.602666l60.288-0.490667 60.309333-0.490667 8.341333-5.162666c5.184-3.2 10.325333-8.341333 13.525334-13.525334 4.650667-7.509333 5.162667-9.749333 5.162666-22.272s-0.512-14.762667-5.162666-22.272a43.989333 43.989333 0 0 0-13.525334-13.525333l-8.341333-5.162667-60.309333-0.490666L554.666667 619.392v-44.117333l60.288-0.490667 60.309333-0.490667 8.341333-5.162666c5.184-3.2 10.325333-8.341333 13.525334-13.525334 4.650667-7.509333 5.162667-9.749333 5.162666-22.272s-0.512-14.762667-5.162666-22.272a43.989333 43.989333 0 0 0-13.525334-13.525333l-8.341333-5.162667-50.922667-0.490666c-27.989333-0.277333-50.901333-1.045333-50.901333-1.728 0-0.661333 22.698667-23.872 50.453333-51.562667 27.754667-27.669333 52.117333-53.397333 54.144-57.152 5.141333-9.557333 5.141333-27.946667-0.021333-37.717333-4.373333-8.277333-13.589333-16.768-22.08-20.309334-7.978667-3.349333-24.042667-3.264-32.362667 0.149334-4.608 1.877333-22.613333 18.666667-59.093333 54.997333L512 430.869333l-52.48-52.309333c-36.48-36.330667-54.485333-53.12-59.093333-54.997333-9.237333-3.797333-25.856-3.413333-34.282667 0.810666" p-id="2096"></path></svg>