<?xml version="1.0" standalone="no"?><!DOCTYPE svg PUBLIC "-//W3C//DTD SVG 1.1//EN" "http://www.w3.org/Graphics/SVG/1.1/DTD/svg11.dtd"><svg t="1631763250438" class="icon" viewBox="0 0 1220 1024" version="1.1" xmlns="http://www.w3.org/2000/svg" p-id="8736" xmlns:xlink="http://www.w3.org/1999/xlink" width="238.28125" height="200"><defs><style type="text/css"></style></defs><path d="M156.261326 1024c-85.943729 0-156.261326-69.82928-156.261326-156.261326V316.917501c0-85.943729 69.82928-156.261326 156.261326-156.261326h765.680496c85.943729 0 156.261326 69.82928 156.261325 156.261326v550.821173c0 85.943729-69.82928 156.261326-156.261325 156.261326H156.261326z m0-813.04721c-49.808298 0-104.988078 56.156414-104.988079 105.964711v550.821173c0 49.808298 55.668097 106.941345 104.988079 106.941345h765.680496c49.808298 0 106.453028-57.621364 106.453028-106.941345V316.917501c0-49.808298-56.644731-105.964711-106.453028-105.964711H156.261326z m0 16.114449" p-id="8737"></path><path d="M622.115403 506.872675h-444.368145c-1.953267 0-3.906533-1.953267-3.906533-3.906533V442.903195c0-1.953267 1.46495-3.418216 3.418216-3.418216h444.368145c1.953267 0 3.906533 1.953267 3.906533 3.906533v60.062947c0.488317 1.953267-1.46495 3.418216-3.418216 3.418216z m0 238.298522h-444.368145c-1.953267 0-3.906533-1.953267-3.906533-3.906533v-60.062947c0-1.953267 1.953267-3.906533 3.906533-3.906533h444.368145c1.953267 0 3.906533 1.953267 3.906533 3.906533v60.062947c0 1.953267-1.953267 3.906533-3.906533 3.906533z m141.12351-188.978541c-6.836433 0-12.696233-2.441583-17.579399-7.324749l-66.411064-66.411064c-9.766333-9.766333-9.766333-25.392465 0-35.158798 4.39485-4.39485 10.742966-7.32475 17.579399-7.32475 6.836433 0 12.696233 2.441583 17.579399 7.32475l48.831665 48.831664 98.639962-98.639962c4.39485-4.883166 10.742966-7.32475 17.579399-7.324749 6.836433 0 12.696233 2.441583 17.579399 7.324749 9.766333 9.766333 9.766333 25.392465 0 35.158799l-116.219361 116.219361c-4.883166 4.883166-10.742966 7.32475-17.579399 7.324749z m0 238.298522c-6.836433 0-12.696233-2.441583-17.579399-7.32475l-66.411064-66.411063c-9.766333-9.766333-9.766333-25.392465 0-35.158798 4.39485-4.39485 10.742966-7.32475 17.579399-7.32475 6.836433 0 12.696233 2.441583 17.579399 7.32475l48.831665 48.831664 98.639962-98.639962c4.39485-4.883166 10.742966-7.32475 17.579399-7.32475 6.836433 0 12.696233 2.441583 17.579399 7.32475 9.766333 9.766333 9.766333 25.392465 0 35.158798l-116.219361 116.219361c-4.883166 4.883166-10.742966 7.32475-17.579399 7.32475z m0 0" p-id="8738"></path><path d="M1074.784931 316.917501c0-84.478779-68.852647-153.331426-153.331426-153.331426H156.261326c-3.906533 0-7.32475 0.488317-11.231283 0.488317h-1.46495l-0.488317-1.46495V156.261326c0-85.943729 69.82928-156.261326 156.261326-156.261326H1064.530281C1150.962327 0 1220.791607 69.82928 1220.791607 156.261326v550.821173c0 81.060563-63.481164 149.424893-144.541726 155.284692h-1.46495V316.917501z m0 0" p-id="8739"></path><path d="M1064.530281 41.995231H299.338102c-57.621364 0-109.871245 62.50453-109.871245 120.125894h731.986648c85.455412 0 154.796376 69.340963 154.796376 154.796376v499.547926c44.925131-5.8598 104.988078-63.481164 104.988078-109.871245V156.261326C1180.749642 105.476395 1114.826896 41.995231 1064.530281 41.995231z m0 22.950882" p-id="8740"></path></svg>