<?xml version="1.0" standalone="no"?><!DOCTYPE svg PUBLIC "-//W3C//DTD SVG 1.1//EN" "http://www.w3.org/Graphics/SVG/1.1/DTD/svg11.dtd"><svg t="1647948647770" class="icon" viewBox="0 0 1024 1024" version="1.1" xmlns="http://www.w3.org/2000/svg" p-id="26338" xmlns:xlink="http://www.w3.org/1999/xlink" width="200" height="200"><defs><style type="text/css">@font-face { font-family: feedback-iconfont; src: url("//at.alicdn.com/t/font_1031158_u69w8yhxdu.woff2?t=1630033759944") format("woff2"), url("//at.alicdn.com/t/font_1031158_u69w8yhxdu.woff?t=1630033759944") format("woff"), url("//at.alicdn.com/t/font_1031158_u69w8yhxdu.ttf?t=1630033759944") format("truetype"); }
</style></defs><path d="M368.250831 0H79.779572A80.266033 80.266033 0 0 0 0 79.779572v288.471259a80.266033 80.266033 0 0 0 79.779572 79.779573h288.471259a80.266033 80.266033 0 0 0 79.779573-79.779573V79.779572A80.266033 80.266033 0 0 0 368.250831 0z m31.133492 368.250831a31.133492 31.133492 0 0 1-31.133492 31.133492H79.779572A31.133492 31.133492 0 0 1 48.646081 368.250831V79.779572A31.133492 31.133492 0 0 1 79.779572 48.646081h288.471259a31.133492 31.133492 0 0 1 31.133492 31.133491zM819.686461 0H778.337292a204.313539 204.313539 0 0 0-204.313539 203.827078V243.230404A204.313539 204.313539 0 0 0 778.337292 448.030404h39.403326A204.313539 204.313539 0 0 0 1024 243.230404v-39.403326A204.313539 204.313539 0 0 0 819.686461 0z m155.667458 243.230404a155.667458 155.667458 0 0 1-155.667458 155.667458H778.337292A155.667458 155.667458 0 0 1 624.615677 243.230404v-39.403326A155.180998 155.180998 0 0 1 778.337292 48.646081h39.403326a155.180998 155.180998 0 0 1 155.667458 155.180997zM243.230404 575.969596h-39.403326A204.313539 204.313539 0 0 0 0 778.337292v39.889786a204.313539 204.313539 0 0 0 203.827078 204.31354H243.230404a204.313539 204.313539 0 0 0 204.313539-204.31354V778.337292A204.313539 204.313539 0 0 0 243.230404 575.969596z m155.667458 243.230404A155.667458 155.667458 0 0 1 243.230404 975.353919h-39.403326A155.180998 155.180998 0 0 1 48.646081 819.686461V778.337292a155.180998 155.180998 0 0 1 155.180997-155.180997H243.230404A155.180998 155.180998 0 0 1 399.384323 778.337292zM944.220428 575.969596h-288.471259a80.266033 80.266033 0 0 0-79.779573 79.779573v288.471259a80.266033 80.266033 0 0 0 79.779573 79.779572h288.471259a80.266033 80.266033 0 0 0 79.779572-79.779572v-288.471259a80.266033 80.266033 0 0 0-79.779572-79.779573z m31.133491 368.250832a31.133492 31.133492 0 0 1-31.133491 31.133491h-288.471259a31.133492 31.133492 0 0 1-31.133492-31.133491v-288.471259a31.133492 31.133492 0 0 1 31.133492-31.133492h288.471259a31.133492 31.133492 0 0 1 31.133491 31.133492z" p-id="26339"></path></svg>