<?xml version="1.0" standalone="no"?><!DOCTYPE svg PUBLIC "-//W3C//DTD SVG 1.1//EN" "http://www.w3.org/Graphics/SVG/1.1/DTD/svg11.dtd"><svg t="1647920759189" class="icon" viewBox="0 0 1280 1024" version="1.1" xmlns="http://www.w3.org/2000/svg" p-id="9508" xmlns:xlink="http://www.w3.org/1999/xlink" width="250" height="200"><defs><style type="text/css">@font-face { font-family: feedback-iconfont; src: url("//at.alicdn.com/t/font_1031158_u69w8yhxdu.woff2?t=1630033759944") format("woff2"), url("//at.alicdn.com/t/font_1031158_u69w8yhxdu.woff?t=1630033759944") format("woff"), url("//at.alicdn.com/t/font_1031158_u69w8yhxdu.ttf?t=1630033759944") format("truetype"); }
</style></defs><path d="M1038.719351 634.240244h-165.119897a41.663974 41.663974 0 0 0-41.343974 42.239973c0 23.295985 18.431988 42.111974 41.343974 42.111974h165.119897a41.663974 41.663974 0 0 0 41.407974-42.175974 41.791974 41.791974 0 0 0-41.343974-42.111973z m42.751973-183.039886h-206.527871a41.663974 41.663974 0 0 0-41.279974 42.111974c0 23.359985 18.431988 42.175974 41.279974 42.175973h206.527871a41.663974 41.663974 0 0 0 41.343974-42.175973 41.791974 41.791974 0 0 0-41.343974-42.111974z m-209.279869-97.407939h165.183897a41.663974 41.663974 0 0 0 41.343974-42.175974 41.663974 41.663974 0 0 0-41.343974-42.111973h-165.119897a41.663974 41.663974 0 0 0-41.407974 42.111973c0 23.359985 18.623988 42.175974 41.343974 42.175974zM460.351712 287.80846c57.983964 0 105.151934 47.167971 105.151935 105.151934 0 58.047964-47.167971 105.151934-105.151935 105.151935A105.215934 105.215934 0 0 1 355.199778 392.960394c0-57.983964 47.167971-105.151934 105.151934-105.151934z m0-85.759946a190.847881 190.847881 0 1 0 0 381.759761 190.847881 190.847881 0 0 0 0-381.695761z" fill="#97999F" p-id="9509"></path><path d="M697.343564 808.448135a43.071973 43.071973 0 0 1-43.711973-42.367974c0-103.231935-86.783946-187.327883-193.279879-187.327883s-193.279879 84.095947-193.279879 187.327883a43.071973 43.071973 0 0 1-43.711973 42.367974 43.135973 43.135973 0 0 1-43.711972-42.367974c0-150.079906 126.015921-271.99983 280.703824-271.99983s280.703825 122.047924 280.703825 271.99983a42.943973 42.943973 0 0 1-43.711973 42.367974z" fill="#97999F" p-id="9510"></path><path d="M1197.439252 0.00064H82.559948C36.991977 0.00064 0 36.864617 0 82.304589v823.487485c0 45.439972 36.991977 82.303949 82.559948 82.303948h1114.879304c45.567972 0 82.559948-36.927977 82.559948-82.303948V82.304589A82.303949 82.303949 0 0 0 1197.439252 0.00064z m0 905.791434H82.559948V82.304589h1114.879304v823.487485z" fill="#97999F" p-id="9511"></path></svg>