<?xml version="1.0" standalone="no"?><!DOCTYPE svg PUBLIC "-//W3C//DTD SVG 1.1//EN" "http://www.w3.org/Graphics/SVG/1.1/DTD/svg11.dtd"><svg t="1635755189324" class="icon" viewBox="0 0 1024 1024" version="1.1" xmlns="http://www.w3.org/2000/svg" p-id="2145" xmlns:xlink="http://www.w3.org/1999/xlink" width="200" height="200"><defs><style type="text/css"></style></defs><path d="M760.41216 680.91776v119.24224a39.74784 39.74784 0 0 1-79.49568 0v-119.24224H343.06176v119.24224a39.74784 39.74784 0 1 1-79.488 0v-119.24224c-137.20064 0-248.4224-111.22304-248.4224-248.42368s111.22304-248.42112 248.4224-248.42112h496.8448c137.19936 0 248.4224 111.22176 248.4224 248.42112s-111.22944 248.42368-248.4288 248.42368z m0-417.3504h-496.8448a168.928 168.928 0 1 0 0 337.85472h496.8448a168.928 168.928 0 0 0 0-337.85472z m0 208.67456H541.79968a39.74784 39.74784 0 1 1 0-79.4944h218.61248a39.74784 39.74784 0 0 1 0 79.4944z m-496.8448 39.74784a79.49568 79.49568 0 1 1 79.488-79.49568 79.49568 79.49568 0 0 1-79.488 79.49568z" p-id="2146"></path></svg>