<?xml version="1.0" standalone="no"?><!DOCTYPE svg PUBLIC "-//W3C//DTD SVG 1.1//EN" "http://www.w3.org/Graphics/SVG/1.1/DTD/svg11.dtd"><svg t="1633757076282" class="icon" viewBox="0 0 1024 1024" version="1.1" xmlns="http://www.w3.org/2000/svg" p-id="2093" xmlns:xlink="http://www.w3.org/1999/xlink" width="200" height="200"><defs><style type="text/css"></style></defs><path d="M768 128c38.4 0 64 25.6 64 64v640c0 38.4-25.6 64-64 64H256c-38.4 0-64-25.6-64-64V192c0-38.4 25.6-64 64-64h512m0-64H256c-70.4 0-128 57.6-128 128v640c0 70.4 57.6 128 128 128h512c70.4 0 128-57.6 128-128V192c0-70.4-57.6-128-128-128z" fill="#333333" p-id="2094"></path><path d="M128 320h768v64H128zM761.6 480c-12.8-12.8-32-12.8-44.8 0l-249.6 249.6-160-160c-12.8-12.8-32-12.8-44.8 0s-12.8 32 0 44.8l179.2 179.2c12.8 12.8 32 12.8 44.8 0l268.8-268.8c19.2-12.8 19.2-32 6.4-44.8z" fill="#333333" p-id="2095"></path></svg>