<?xml version="1.0" standalone="no"?><!DOCTYPE svg PUBLIC "-//W3C//DTD SVG 1.1//EN" "http://www.w3.org/Graphics/SVG/1.1/DTD/svg11.dtd"><svg t="1631066102633" class="icon" viewBox="0 0 1024 1024" version="1.1" xmlns="http://www.w3.org/2000/svg" p-id="2032" xmlns:xlink="http://www.w3.org/1999/xlink" width="200" height="200"><defs><style type="text/css"></style></defs><path d="M391.2 0H69C31.1 0 0 31.1 0 69v322.2c0 38 31.1 69 69 69h322.2c38 0 69-31.1 69-69V69c0-37.9-31-69-69-69z m-23 368.2H92V92h276.1v276.2zM391.2 563.8H69c-38 0-69 31.1-69 69V955c0 38 31.1 69 69 69h322.2c38 0 69-31.1 69-69V632.8c0-38-31-69-69-69z m-23 368.2H92V655.8h276.1V932zM955 0H632.8c-38 0-69 31.1-69 69v322.2c0 38 31.1 69 69 69H955c38 0 69-31.1 69-69V69c0-37.9-31.1-69-69-69z m-23 368.2H655.8V92H932v276.2zM992 723.4H595.8c-17.6 0-32-14.4-32-32v-28c0-17.6 14.4-32 32-32H992c17.6 0 32 14.4 32 32v28c0 17.6-14.4 32-32 32zM992 957.8H595.8c-17.6 0-32-14.4-32-32v-28c0-17.6 14.4-32 32-32H992c17.6 0 32 14.4 32 32v28c0 17.6-14.4 32-32 32z" p-id="2033"></path></svg>