<?xml version="1.0" standalone="no"?><!DOCTYPE svg PUBLIC "-//W3C//DTD SVG 1.1//EN" "http://www.w3.org/Graphics/SVG/1.1/DTD/svg11.dtd"><svg t="1630570621292" class="icon" viewBox="0 0 1024 1024" version="1.1" xmlns="http://www.w3.org/2000/svg" p-id="15011" xmlns:xlink="http://www.w3.org/1999/xlink" width="200" height="200"><defs><style type="text/css"></style></defs><path d="M1020.533891 973.18163a221.99967 221.99967 0 0 0-134.96353-164.486803 150.619811 150.619811 0 0 0-83.074143-276.125669 150.683714 150.683714 0 0 0-83.074142 276.125669 222.19138 222.19138 0 0 0-135.027434 164.486803 41.089749 41.089749 0 1 0 80.709725 15.272861 140.011882 140.011882 0 0 1 274.911509 0 41.089749 41.089749 0 0 0 47.92739 32.718432 41.153652 41.153652 0 0 0 32.590625-47.991293zM940.399295 0C985.642751 0 1022.450987 36.872139 1022.450987 82.179498v387.956246a41.025846 41.025846 0 1 1-82.051692 0V82.179498H82.051692v858.091991h315.745645a41.025846 41.025846 0 1 1 0 82.179498h-315.681742A82.179498 82.179498 0 0 1 0 940.271489V82.179498C0 36.808236 36.808236 0 82.051692 0z m-137.96698 614.748656a68.504216 68.504216 0 0 1 0 136.880626 68.504216 68.504216 0 0 1 0-136.880626z m-404.634978 42.559522a41.025846 41.025846 0 1 1 0 82.115595H188.067078a41.025846 41.025846 0 1 1 0-82.115595z m0-219.124027a41.025846 41.025846 0 1 1 0 82.179498H188.067078a41.025846 41.025846 0 1 1 0-82.179498zM543.688312 219.18793a41.025846 41.025846 0 1 1 0 82.115595H188.067078a41.025846 41.025846 0 1 1 0-82.115595z" fill="#8C8C8C" p-id="15012"></path></svg>