<?xml version="1.0" standalone="no"?><!DOCTYPE svg PUBLIC "-//W3C//DTD SVG 1.1//EN" "http://www.w3.org/Graphics/SVG/1.1/DTD/svg11.dtd"><svg t="1647931628726" class="icon" viewBox="0 0 1024 1024" version="1.1" xmlns="http://www.w3.org/2000/svg" p-id="11945" xmlns:xlink="http://www.w3.org/1999/xlink" width="200" height="200"><defs><style type="text/css">@font-face { font-family: feedback-iconfont; src: url("//at.alicdn.com/t/font_1031158_u69w8yhxdu.woff2?t=1630033759944") format("woff2"), url("//at.alicdn.com/t/font_1031158_u69w8yhxdu.woff?t=1630033759944") format("woff"), url("//at.alicdn.com/t/font_1031158_u69w8yhxdu.ttf?t=1630033759944") format("truetype"); }
</style></defs><path d="M819.2 576c49.4592 0 89.6 40.1408 89.6 89.6v153.6A89.6 89.6 0 0 1 819.2 908.8h-153.6A89.6 89.6 0 0 1 576 819.2v-153.6c0-49.4592 40.1408-89.6 89.6-89.6z m-460.8 0c49.4592 0 89.6 40.1408 89.6 89.6v153.6A89.6 89.6 0 0 1 358.4 908.8H204.8A89.6 89.6 0 0 1 115.2 819.2v-153.6c0-49.4592 40.1408-89.6 89.6-89.6z m460.8 76.8h-153.6a12.8 12.8 0 0 0-12.8 12.8v153.6c0 7.0656 5.7344 12.8 12.8 12.8h153.6a12.8 12.8 0 0 0 12.8-12.8v-153.6a12.8 12.8 0 0 0-12.8-12.8z m-460.8 0H204.8a12.8 12.8 0 0 0-12.8 12.8v153.6c0 7.0656 5.7344 12.8 12.8 12.8h153.6a12.8 12.8 0 0 0 12.8-12.8v-153.6a12.8 12.8 0 0 0-12.8-12.8z m0-537.6c49.4592 0 89.6 40.1408 89.6 89.6v153.6A89.6 89.6 0 0 1 358.4 448H204.8A89.6 89.6 0 0 1 115.2 358.4V204.8c0-49.4592 40.1408-89.6 89.6-89.6z m460.8 0c49.4592 0 89.6 40.1408 89.6 89.6v153.6A89.6 89.6 0 0 1 819.2 448h-153.6A89.6 89.6 0 0 1 576 358.4V204.8c0-49.4592 40.1408-89.6 89.6-89.6z m-460.8 76.8H204.8a12.8 12.8 0 0 0-12.8 12.8v153.6c0 7.0656 5.7344 12.8 12.8 12.8h153.6A12.8 12.8 0 0 0 371.2 358.4V204.8A12.8 12.8 0 0 0 358.4 192z m460.8 0h-153.6a12.8 12.8 0 0 0-12.8 12.8v153.6c0 7.0656 5.7344 12.8 12.8 12.8h153.6a12.8 12.8 0 0 0 12.8-12.8V204.8a12.8 12.8 0 0 0-12.8-12.8z" fill="#303D66" p-id="11946"></path></svg>