<?xml version="1.0" standalone="no"?><!DOCTYPE svg PUBLIC "-//W3C//DTD SVG 1.1//EN" "http://www.w3.org/Graphics/SVG/1.1/DTD/svg11.dtd"><svg t="1648002278640" class="icon" viewBox="0 0 1024 1024" version="1.1" xmlns="http://www.w3.org/2000/svg" p-id="3082" xmlns:xlink="http://www.w3.org/1999/xlink" width="200" height="200"><defs><style type="text/css">@font-face { font-family: feedback-iconfont; src: url("//at.alicdn.com/t/font_1031158_u69w8yhxdu.woff2?t=1630033759944") format("woff2"), url("//at.alicdn.com/t/font_1031158_u69w8yhxdu.woff?t=1630033759944") format("woff"), url("//at.alicdn.com/t/font_1031158_u69w8yhxdu.ttf?t=1630033759944") format("truetype"); }
</style></defs><path d="M315.076923 39.384615c66.953846 0 118.153846 51.2 118.153846 118.153847v275.692307H157.538462c-66.953846 0-118.153846-51.2-118.153847-118.153846V39.384615h275.692308m0-39.384615H0v315.076923c0 86.646154 70.892308 157.538462 157.538462 157.538462h315.076923V157.538462c0-86.646154-70.892308-157.538462-157.538462-157.538462zM984.615385 39.384615v275.692308c0 66.953846-51.2 118.153846-118.153847 118.153846h-275.692307V157.538462c0-66.953846 51.2-118.153846 118.153846-118.153847h275.692308m39.384615-39.384615h-315.076923c-86.646154 0-157.538462 70.892308-157.538462 157.538462v315.076923h315.076923c86.646154 0 157.538462-70.892308 157.538462-157.538462V0zM866.461538 590.769231c66.953846 0 118.153846 51.2 118.153847 118.153846v275.692308h-275.692308c-66.953846 0-118.153846-51.2-118.153846-118.153847v-275.692307h275.692307m0-39.384616h-315.076923v315.076923c0 86.646154 70.892308 157.538462 157.538462 157.538462h315.076923v-315.076923c0-86.646154-70.892308-157.538462-157.538462-157.538462zM433.230769 590.769231v275.692307c0 66.953846-51.2 118.153846-118.153846 118.153847H39.384615v-275.692308c0-66.953846 51.2-118.153846 118.153847-118.153846h275.692307m39.384616-39.384616H157.538462c-86.646154 0-157.538462 70.892308-157.538462 157.538462v315.076923h315.076923c86.646154 0 157.538462-70.892308 157.538462-157.538462v-315.076923z" fill="" p-id="3083"></path></svg>