<?xml version="1.0" standalone="no"?><!DOCTYPE svg PUBLIC "-//W3C//DTD SVG 1.1//EN" "http://www.w3.org/Graphics/SVG/1.1/DTD/svg11.dtd"><svg t="1647939050203" class="icon" viewBox="0 0 1024 1024" version="1.1" xmlns="http://www.w3.org/2000/svg" p-id="15109" xmlns:xlink="http://www.w3.org/1999/xlink" width="200" height="200"><defs><style type="text/css">@font-face { font-family: feedback-iconfont; src: url("//at.alicdn.com/t/font_1031158_u69w8yhxdu.woff2?t=1630033759944") format("woff2"), url("//at.alicdn.com/t/font_1031158_u69w8yhxdu.woff?t=1630033759944") format("woff"), url("//at.alicdn.com/t/font_1031158_u69w8yhxdu.ttf?t=1630033759944") format("truetype"); }
</style></defs><path d="M686.762667 105.847467H192a32.017067 32.017067 0 0 0-32.017067 31.982933V896c0 17.681067 14.336 32.017067 32.017067 32.017067h684.305067c17.681067 0 32.017067-14.336 32.017066-32.017067V327.3728h-115.712a105.847467 105.847467 0 0 1-105.813333-105.813333V105.813333z m64 7.2704V221.525333c0 23.108267 18.773333 41.847467 41.847466 41.847467h104.891734l-144.145067-147.8656a32.017067 32.017067 0 0 0-2.594133-2.389333zM192 41.847467H730.453333c25.873067 0 50.653867 10.4448 68.7104 29.013333l145.885867 149.6064c17.476267 17.92 27.272533 41.984 27.272533 67.003733V896a95.982933 95.982933 0 0 1-96.017066 96.017067H192a95.982933 95.982933 0 0 1-96.017067-96.017067V137.8304a95.982933 95.982933 0 0 1 96.017067-95.982933z m83.694933 433.220266a31.982933 31.982933 0 1 1 0-64H792.576a32.017067 32.017067 0 0 1 0 64H275.694933z m0 221.525334a31.982933 31.982933 0 1 1 0-63.965867h334.336a32.017067 32.017067 0 0 1 0 64H275.694933z" p-id="15110"></path></svg>