<?xml version="1.0" standalone="no"?><!DOCTYPE svg PUBLIC "-//W3C//DTD SVG 1.1//EN" "http://www.w3.org/Graphics/SVG/1.1/DTD/svg11.dtd"><svg t="1631599114804" class="icon" viewBox="0 0 1024 1024" version="1.1" xmlns="http://www.w3.org/2000/svg" p-id="2079" xmlns:xlink="http://www.w3.org/1999/xlink" width="200" height="200"><defs><style type="text/css"></style></defs><path d="M384 832H320v-64h64v64z m512-384v448c0 35.2-28.8 64-64 64H192c-35.2 0-64-28.8-64-64V448c0-35.2 28.8-64 64-64h64V256c0-140.8 115.2-256 256-256s256 115.2 256 256v128h64c35.2 0 64 28.8 64 64zM371.2 384h282.24V256c0-78.08-62.72-140.8-140.8-140.8-78.08 0-140.8 62.72-140.8 140.8v128H371.2zM832 448H256v448h576V448zM384 512H320v64h64V512z m0 128H320v64h64v-64z" p-id="2080"></path></svg>