<?xml version="1.0" standalone="no"?><!DOCTYPE svg PUBLIC "-//W3C//DTD SVG 1.1//EN" "http://www.w3.org/Graphics/SVG/1.1/DTD/svg11.dtd"><svg t="1631763482564" class="icon" viewBox="0 0 1024 1024" version="1.1" xmlns="http://www.w3.org/2000/svg" p-id="10350" xmlns:xlink="http://www.w3.org/1999/xlink" width="200" height="200"><defs><style type="text/css"></style></defs><path d="M644.689304 297.94757a113.965962 113.965962 0 0 0-37.66686-28.487257 106.107408 106.107408 0 0 0-45.474603-10.161922h-184.60826v270.984601h190.129571a100.433668 100.433668 0 0 0 46.389177-10.568399 105.006533 105.006533 0 0 0 35.36349-29.401829 144.604158 144.604158 0 0 0 22.965945-43.628521 164.50459 164.50459 0 0 0 8.26503-52.367775 146.534923 146.534923 0 0 0-35.36349-96.538264z" fill="" p-id="10351"></path><path d="M890.031988 0H133.968012A133.968012 133.968012 0 0 0 0.016937 133.968012v756.047039a133.968012 133.968012 0 0 0 133.951075 133.968012H890.031988a133.951076 133.951076 0 0 0 133.951075-133.968012V133.968012A133.951076 133.951076 0 0 0 890.031988 0z m-140.149849 472.529399a215.432758 215.432758 0 0 1-39.038719 67.068689 189.689221 189.689221 0 0 1-60.632805 46.846463q-35.397364 17.427697-78.551661 17.410761h-194.770183v234.266188h-82.66724V185.861564h271.916111a177.071501 177.071501 0 0 1 79.466235 17.918856 200.054382 200.054382 0 0 1 62.478887 47.777973 228.169035 228.169035 0 0 1 40.884802 67.068689 204.932105 204.932105 0 0 1 14.700915 75.791006 225.476125 225.476125 0 0 1-13.786342 78.111311z" fill="" p-id="10352"></path></svg>