<?xml version="1.0" standalone="no"?><!DOCTYPE svg PUBLIC "-//W3C//DTD SVG 1.1//EN" "http://www.w3.org/Graphics/SVG/1.1/DTD/svg11.dtd"><svg t="1630389261574" class="icon" viewBox="0 0 1024 1024" version="1.1" xmlns="http://www.w3.org/2000/svg" p-id="7318" xmlns:xlink="http://www.w3.org/1999/xlink" width="200" height="200"><defs><style type="text/css"></style></defs><path d="M810.666667 1024H213.333333a128 128 0 0 1-128-128v-85.333333a128 128 0 0 1 128-128h597.333334a128 128 0 0 1 128 128v85.333333a128 128 0 0 1-128 128zM213.333333 768a42.666667 42.666667 0 0 0-42.666666 42.666667v85.333333a42.666667 42.666667 0 0 0 42.666666 42.666667h597.333334a42.666667 42.666667 0 0 0 42.666666-42.666667v-85.333333a42.666667 42.666667 0 0 0-42.666666-42.666667z" p-id="7319"></path><path d="M512 853.333333m-42.666667 0a42.666667 42.666667 0 1 0 85.333334 0 42.666667 42.666667 0 1 0-85.333334 0Z" p-id="7320"></path><path d="M384 853.333333m-42.666667 0a42.666667 42.666667 0 1 0 85.333334 0 42.666667 42.666667 0 1 0-85.333334 0Z" p-id="7321"></path><path d="M256 853.333333m-42.666667 0a42.666667 42.666667 0 1 0 85.333334 0 42.666667 42.666667 0 1 0-85.333334 0Z" p-id="7322"></path><path d="M640 853.333333m-42.666667 0a42.666667 42.666667 0 1 0 85.333334 0 42.666667 42.666667 0 1 0-85.333334 0Z" p-id="7323"></path><path d="M768 853.333333m-42.666667 0a42.666667 42.666667 0 1 0 85.333334 0 42.666667 42.666667 0 1 0-85.333334 0Z" p-id="7324"></path><path d="M768 597.333333a253.44 253.44 0 0 1-190.293333-85.333333H128a128 128 0 0 1-128-128V298.666667a128 128 0 0 1 128-128h449.28a256 256 0 0 1 442.026667 221.013333 256 256 0 0 1-199.253334 200.533333A273.493333 273.493333 0 0 1 768 597.333333zM128 256a42.666667 42.666667 0 0 0-42.666667 42.666667v85.333333a42.666667 42.666667 0 0 0 42.666667 42.666667h469.333333a42.666667 42.666667 0 0 1 34.133334 17.066666 170.666667 170.666667 0 0 0 303.786666-67.84A170.666667 170.666667 0 0 0 768 170.666667a170.666667 170.666667 0 0 0-136.533333 68.266666 42.666667 42.666667 0 0 1-34.133334 17.066667z" p-id="7325"></path><path d="M170.666667 512a42.666667 42.666667 0 0 1-42.666667-42.666667V384a42.666667 42.666667 0 0 1 85.333333 0v85.333333a42.666667 42.666667 0 0 1-42.666666 42.666667zM298.666667 512a42.666667 42.666667 0 0 1-42.666667-42.666667V384a42.666667 42.666667 0 0 1 85.333333 0v85.333333a42.666667 42.666667 0 0 1-42.666666 42.666667zM426.666667 512a42.666667 42.666667 0 0 1-42.666667-42.666667V384a42.666667 42.666667 0 0 1 85.333333 0v85.333333a42.666667 42.666667 0 0 1-42.666666 42.666667z" p-id="7326"></path><path d="M853.333333 341.333333m-42.666666 0a42.666667 42.666667 0 1 0 85.333333 0 42.666667 42.666667 0 1 0-85.333333 0Z" p-id="7327"></path></svg>