<?xml version="1.0" standalone="no"?><!DOCTYPE svg PUBLIC "-//W3C//DTD SVG 1.1//EN" "http://www.w3.org/Graphics/SVG/1.1/DTD/svg11.dtd"><svg t="1647915337589" class="icon" viewBox="0 0 1100 1024" version="1.1" xmlns="http://www.w3.org/2000/svg" p-id="4316" xmlns:xlink="http://www.w3.org/1999/xlink" width="214.84375" height="200"><defs><style type="text/css">@font-face { font-family: feedback-iconfont; src: url("//at.alicdn.com/t/font_1031158_u69w8yhxdu.woff2?t=1630033759944") format("woff2"), url("//at.alicdn.com/t/font_1031158_u69w8yhxdu.woff?t=1630033759944") format("woff"), url("//at.alicdn.com/t/font_1031158_u69w8yhxdu.ttf?t=1630033759944") format("truetype"); }
</style></defs><path d="M564.719852 379.962894a189.981447 189.981447 0 1 0-189.981448-189.981447 189.981447 189.981447 0 0 0 189.981448 189.981447z m0-328.667903a142.486085 142.486085 0 1 1-142.486086 142.486085 142.486085 142.486085 0 0 1 142.486086-142.486085zM603.666048 573.74397a189.981447 189.981447 0 1 0 189.981447-189.981447 189.981447 189.981447 0 0 0-189.981447 189.981447z m189.981447-142.486085a142.486085 142.486085 0 1 1-142.486085 142.486085 142.486085 142.486085 0 0 1 140.586271-139.16141zM978.404453 811.220779h-373.313544v47.495362h373.313544a70.293135 70.293135 0 0 1 70.293135 70.293135v94.990724h47.495362v-94.990724A118.263451 118.263451 0 0 0 978.404453 811.220779zM303.970315 749.476809a189.981447 189.981447 0 1 0-187.606679-187.606679A189.981447 189.981447 0 0 0 303.970315 749.476809z m0-328.19295a142.486085 142.486085 0 1 1-140.111317 142.486085 142.486085 142.486085 0 0 1 140.111317-142.486085zM490.627087 796.497217H117.788497A117.788497 117.788497 0 0 0 0 913.810761v94.990723h47.495362v-94.990723a69.818182 69.818182 0 0 1 70.293135-69.818182h372.83859a70.293135 70.293135 0 0 1 70.293136 70.293135v94.990724h47.495361v-94.990724a117.788497 117.788497 0 0 0-117.788497-117.788497z" p-id="4317"></path></svg>