<?xml version="1.0" standalone="no"?><!DOCTYPE svg PUBLIC "-//W3C//DTD SVG 1.1//EN" "http://www.w3.org/Graphics/SVG/1.1/DTD/svg11.dtd"><svg t="1630303096900" class="icon" viewBox="0 0 1024 1024" version="1.1" xmlns="http://www.w3.org/2000/svg" p-id="4778" xmlns:xlink="http://www.w3.org/1999/xlink" width="200" height="200"><defs><style type="text/css"></style></defs><path d="M358.4 341.333333c-10.24 0-17.066667-6.826667-17.066667-17.066666v-68.266667c0-10.24 6.826667-17.066667 17.066667-17.066667s17.066667 6.826667 17.066667 17.066667v68.266667c0 10.24-6.826667 17.066667-17.066667 17.066666zM358.4 529.066667c-10.24 0-17.066667-6.826667-17.066667-17.066667v-119.466667c0-10.24 6.826667-17.066667 17.066667-17.066666s17.066667 6.826667 17.066667 17.066666V512c0 10.24-6.826667 17.066667-17.066667 17.066667z" fill="" p-id="4779"></path><path d="M546.133333 512c-6.826667 0-13.653333-6.826667-17.066666-13.653333l-34.133334-163.84c-3.413333-34.133333-34.133333-61.44-68.266666-61.44H307.2c-34.133333 0-64.853333 27.306667-68.266667 61.44l-34.133333 163.84c-3.413333 10.24-10.24 13.653333-20.48 13.653333-10.24-3.413333-13.653333-10.24-13.653333-20.48l34.133333-163.84C211.626667 276.48 256 238.933333 307.2 238.933333h119.466667c51.2 0 95.573333 37.546667 102.4 88.746667l34.133333 163.84c3.413333 10.24-3.413333 17.066667-13.653333 20.48H546.133333zM853.333333 1024H170.666667c-6.826667 0-17.066667-6.826667-17.066667-13.653333l-68.266667-392.533334c0-10.24 3.413333-17.066667 13.653334-20.48 10.24 0 17.066667 3.413333 20.48 13.653334L184.32 989.866667h655.36l64.853333-378.88c0-10.24 10.24-17.066667 20.48-13.653334 10.24 0 17.066667 10.24 13.653334 20.48l-68.266667 392.533334c0 6.826667-10.24 13.653333-17.066667 13.653333zM750.933333 409.6c-10.24 0-17.066667-6.826667-17.066666-17.066667v-34.133333c0-10.24 6.826667-17.066667 17.066666-17.066667s17.066667 6.826667 17.066667 17.066667v34.133333c0 10.24-6.826667 17.066667-17.066667 17.066667z" fill="" p-id="4780"></path><path d="M948.906667 614.4H78.506667c-34.133333 0-61.44-27.306667-61.44-61.44s27.306667-61.44 61.44-61.44h870.4c34.133333 0 61.44 27.306667 61.44 61.44s-30.72 61.44-61.44 61.44zM78.506667 529.066667c-13.653333 0-27.306667 10.24-27.306667 27.306666s10.24 23.893333 27.306667 23.893334h870.4c13.653333 0 27.306667-10.24 27.306666-27.306667s-10.24-27.306667-27.306666-27.306667H78.506667zM358.4 204.8c-58.026667 0-102.4-44.373333-102.4-102.4s44.373333-102.4 102.4-102.4 102.4 44.373333 102.4 102.4-44.373333 102.4-102.4 102.4z m0-170.666667c-37.546667 0-68.266667 30.72-68.266667 68.266667s30.72 68.266667 68.266667 68.266667 68.266667-30.72 68.266667-68.266667-30.72-68.266667-68.266667-68.266667z" fill="" p-id="4781"></path><path d="M853.333333 512c-10.24 0-17.066667-6.826667-17.066666-17.066667 0-47.786667-37.546667-85.333333-85.333334-85.333333s-85.333333 37.546667-85.333333 85.333333c0 10.24-6.826667 17.066667-17.066667 17.066667s-17.066667-6.826667-17.066666-17.066667c0-64.853333 54.613333-119.466667 119.466666-119.466666s119.466667 54.613333 119.466667 119.466666c0 10.24-6.826667 17.066667-17.066667 17.066667z" fill="" p-id="4782"></path></svg>