<?xml version="1.0" standalone="no"?><!DOCTYPE svg PUBLIC "-//W3C//DTD SVG 1.1//EN" "http://www.w3.org/Graphics/SVG/1.1/DTD/svg11.dtd"><svg t="1632722495451" class="icon" viewBox="0 0 1024 1024" version="1.1" xmlns="http://www.w3.org/2000/svg" p-id="2342" xmlns:xlink="http://www.w3.org/1999/xlink" width="200" height="200"><defs><style type="text/css"></style></defs><path d="M694.642 561.174v-45.685h-141.886l103.906-123.791-34.934-29.379-109.46 130.24h-0.717l-109.28-130.24-35.111 29.379 103.906 123.791h-141.886v45.685h159.98v68.435h-159.98v45.685h159.98v137.049h45.685v-137.049h159.799v-45.685h-159.799v-68.435z" p-id="2343"></path><path d="M922.876 330.971l-45.324 18.81c34.754 61.268 54.64 132.031 54.64 207.275 0 232.176-188.106 420.282-420.282 420.282s-420.282-188.106-420.282-420.282 188.106-420.282 420.282-420.282h1.79l0.539-48.729h-2.327c-259.049 0-469.008 209.962-469.008 469.008s210.141 469.187 469.008 469.187c259.049 0 469.008-209.962 469.008-469.008 0-82.049-20.96-159.082-58.043-226.263z" p-id="2344"></path><path d="M715.961 295.858h44.785v-126.658h126.658v-44.608h-126.658v-126.837h-44.785v126.837h-126.658v44.608h126.658z" p-id="2345"></path></svg>