<?xml version="1.0" standalone="no"?><!DOCTYPE svg PUBLIC "-//W3C//DTD SVG 1.1//EN" "http://www.w3.org/Graphics/SVG/1.1/DTD/svg11.dtd"><svg t="1630550104613" class="icon" viewBox="0 0 1024 1024" version="1.1" xmlns="http://www.w3.org/2000/svg" p-id="14615" xmlns:xlink="http://www.w3.org/1999/xlink" width="200" height="200"><defs><style type="text/css"></style></defs><path d="M519.04 32c119.424 4.288 238.72 68.096 238.72 255.424 4.608 72.384-41.28 170.304-87.168 225.664-73.472 97.92 27.52 144.768 27.52 144.768s171.328 93.632 226.368 131.968c55.104 38.336 68.16 72.384 68.16 72.384 7.872 14.592 13.568 38.592 14.976 58.56l0.384 9.6v55.296c0 8.512-0.192 20.288-9.408 28.8-7.68 7.04-15.168 8.96-25.408 9.408l-6.528 0.128H57.344a46.272 46.272 0 0 1-28.48-9.536 33.088 33.088 0 0 1-12.608-24.192L16 985.6v-55.36c0-21.248 9.152-46.784 18.368-68.096 0 0 11.84-29.824 66.944-72.32 55.04-42.624 238.72-132.032 238.72-132.032s105.6-46.848 27.52-144.768C326.272 453.504 275.84 355.584 280.32 287.424 280.32 100.096 404.288 32 519.04 32z m0.448 50.816c-92.8 0-193.152 55.104-193.152 206.72-3.712 55.104 37.12 134.4 70.592 182.592 28.416 35.584 54.528 94.272 44.16 138.24-12.8 53.888-66.432 90.24-66.432 90.24s-171.648 78.208-216.192 112.64c-44.608 34.432-47.68 35.968-58.816 52.672-11.136 16.704-19.392 37.888-19.392 55.104v29.12c0 6.848 0.512 16 7.936 22.912 7.488 6.912 18.112 8.064 25.536 8.064h796.736c11.136 0 16.832-1.152 24.256-8.064a30.592 30.592 0 0 0 9.152-22.912v-29.12c0-17.216-7.488-41.344-14.912-55.104 0 0-13.376-21.632-57.92-52.672-44.608-30.976-206.656-112.64-206.656-112.64s-51.968-35.392-64.128-90.24c-9.664-43.456 15.552-103.232 41.856-138.24 37.12-44.8 74.24-124.032 70.592-182.592 0-151.616-96.64-203.264-193.216-206.72z m23.808 587.84l45.184 221.376-58.752 59.584-4.48 4.288-4.544-4.288-4.544-4.224-58.816-55.36 45.248-221.44h40.704z" p-id="14616"></path></svg>