<?xml version="1.0" standalone="no"?><!DOCTYPE svg PUBLIC "-//W3C//DTD SVG 1.1//EN" "http://www.w3.org/Graphics/SVG/1.1/DTD/svg11.dtd"><svg t="1630548012383" class="icon" viewBox="0 0 1024 1024" version="1.1" xmlns="http://www.w3.org/2000/svg" p-id="12333" xmlns:xlink="http://www.w3.org/1999/xlink" width="200" height="200"><defs><style type="text/css"></style></defs><path d="M641.441399 486.609871c48.297454-37.924887 79.461925-96.669058 79.461925-162.691095 0-114.114031-92.832859-206.950887-206.957683-206.950887-114.119427 0-206.950887 92.83146-206.950887 206.950887 0 66.022037 31.190253 124.766209 79.461925 162.691095C259.262116 537.442206 169.027695 661.701758 169.027695 806.809975l0 102.170129 689.842287 0L858.869982 806.809975C858.870182 661.663984 768.661344 537.442206 641.441399 486.609871L641.441399 486.609871 641.441399 486.609871zM513.951037 185.950518c76.089012 0 137.962661 61.879046 137.962661 137.968258 0 76.094608-61.87365 137.973654-137.962661 137.973654-76.093209 0-137.972255-61.879046-137.972255-137.973654C375.978782 247.829564 437.857828 185.950518 513.951037 185.950518L513.951037 185.950518 513.951037 185.950518zM789.885953 841.305387 238.010525 841.305387 238.010525 806.809975c0-152.149842 123.785074-275.935116 275.97289-275.935116 152.145845 0 275.902538 123.785074 275.902538 275.935116L789.885953 841.305387 789.885953 841.305387 789.885953 841.305387zM283.045991 498.60234c0.945959-2.083587 0.945959-4.30648 1.414841-6.465816 0.337771-1.308113 0.70812-2.559265 0.882402-3.943127 0.263421-2.722954 0.099932-5.314597-0.274214-7.975193-0.13251-1.420237 0.200064-2.766125-0.13251-4.180765-0.205461-0.806653-0.775674-1.382463-1.013513-2.190515-0.533638-1.545952-1.276934-2.929614-2.016033-4.375433-1.420237-2.965989-2.967388-5.659163-5.08895-8.049542-0.305393-0.337771-0.675742-0.57561-1.008116-0.913381-3.135074-3.261988-6.74023-5.753699-10.846646-7.542886-37.323695-16.63692-61.441343-53.691597-61.441343-94.515119 0-48.033833 32.53614-89.400586 79.155133-100.612185 18.527438-4.482161 29.913319-23.114928 25.468932-41.642366-4.518736-18.522042-23.21486-29.770016-41.642366-25.462137-77.703917 18.732699-131.971323 87.716928-131.971323 167.716488 0 43.651604 16.611338 84.576457 44.835402 115.697757C89.602346 520.667579 31.059638 613.698904 31.059638 718.967532l0 53.353826c0 19.065274 15.428939 34.488617 34.488617 34.488617 19.066473 0 34.495412-15.423543 34.495412-34.488617l0-53.353826c0-95.39752 64.132918-177.244428 156.156326-200.422913C267.64943 516.929714 278.063769 509.957241 283.045991 498.60234L283.045991 498.60234 283.045991 498.60234zM848.397682 474.148319c28.224064-31.1213 44.824609-72.046153 44.824609-115.703153 0-77.909377-52.47822-146.424524-127.621473-166.597647-18.358353-4.920064-37.287119 5.964556-42.274738 24.354088-4.951043 18.42191 5.964556 37.318298 24.354088 42.274738 45.067844 12.088604 76.56329 53.217319 76.56329 99.974217 0 40.818125-24.079674 77.803849-61.37239 94.48414-4.169973 1.820166-7.848279 4.343055-11.010135 7.642818-0.274414 0.305393-0.606789 0.506656-0.881003 0.812049-2.15394 2.386382-3.701091 5.152507-5.152507 8.150874-0.701325 1.44582-1.478198 2.797104-1.985054 4.30648-0.232442 0.775674-0.806653 1.383662-1.008116 2.190515-0.337771 1.414841 0 2.760728-0.136507 4.175369-0.370149 2.660596-0.539234 5.257835-0.270217 7.985986 0.168885 1.378266 0.539234 2.629617 0.877005 3.93753 0.470281 2.159336 0.470281 4.382229 1.414841 6.471213 4.987618 11.349505 15.396361 18.327374 26.845799 19.936683 92.023408 23.178485 156.156326 105.025393 156.156326 200.422913l0 53.353826c0 19.065274 15.428939 34.488617 34.495412 34.488617 19.059678 0 34.488617-15.423543 34.488617-34.488617l0-53.353826C996.700333 613.698904 938.163021 520.667579 848.397682 474.148319L848.397682 474.148319 848.397682 474.148319z" p-id="12334"></path></svg>