<?xml version="1.0" standalone="no"?><!DOCTYPE svg PUBLIC "-//W3C//DTD SVG 1.1//EN" "http://www.w3.org/Graphics/SVG/1.1/DTD/svg11.dtd"><svg t="1631763609893" class="icon" viewBox="0 0 1024 1024" version="1.1" xmlns="http://www.w3.org/2000/svg" p-id="12694" xmlns:xlink="http://www.w3.org/1999/xlink" width="200" height="200"><defs><style type="text/css"></style></defs><path d="M763.733333 330.666667c-96 0-174.933333 78.933333-174.933333 174.933333 0 61.866667 49.066667 160 151.466667 300.8 4.266667 8.533333 14.933333 12.8 23.466666 12.8 8.533333 0 19.2-4.266667 23.466667-12.8 102.4-142.933333 151.466667-241.066667 151.466667-300.8 0-96-78.933333-174.933333-174.933334-174.933333z m117.333334 174.933333c0 42.666667-42.666667 125.866667-117.333334 232.533333-96-140.8-117.333333-204.8-117.333333-234.666666 0-64 53.333333-117.333333 117.333333-117.333334 64 2.133333 117.333333 55.466667 117.333334 119.466667z m-330.666667-138.666667l8.533333 49.066667 12.8-21.333333c8.533333-17.066667 21.333333-32 32-44.8l4.266667-4.266667-2.133333-4.266667c-6.4-21.333333-25.6-34.133333-49.066667-34.133333H341.333333c-23.466667 0-44.8 17.066667-49.066666 42.666667l-14.933334 85.333333v8.533333c0 27.733333 23.466667 51.2 51.2 51.2h213.333334v-8.533333c0-14.933333 2.133333-27.733333 6.4-40.533333l4.266666-10.666667h-213.333333l10.666667-66.133333 200.533333-2.133334z" p-id="12695"></path><path d="M644.266667 746.666667l-2.133334-2.133334H640c-10.666667-4.266667-17.066667-12.8-21.333333-23.466666-4.266667-10.666667-14.933333-19.2-27.733334-19.2H309.333333c-12.8 0-23.466667 8.533333-27.733333 19.2-6.4 17.066667-23.466667 27.733333-40.533333 27.733333-19.2 0-36.266667-12.8-42.666667-29.866667-2.133333-8.533333-8.533333-17.066667-17.066667-19.2-23.466667-8.533333-38.4-32-36.266666-57.6l6.4-89.6c2.133333-25.6 19.2-46.933333 42.666666-57.6 8.533333-4.266667 14.933333-12.8 17.066667-21.333333l29.866667-138.666667c8.533333-38.4 49.066667-68.266667 87.466666-68.266666h238.933334c29.866667 0 59.733333 17.066667 76.8 44.8l4.266666 6.4 6.4-4.266667c12.8-6.4 25.6-10.666667 38.4-14.933333l10.666667-4.266667-4.266667-8.533333c-27.733333-46.933333-78.933333-76.8-132.266666-76.8H330.666667c-68.266667 0-132.266667 51.2-147.2 117.333333l-27.733334 125.866667c-36.266667 21.333333-59.733333 57.6-64 100.266666L85.333333 635.733333c-4.266667 44.8 19.2 89.6 59.733334 110.933334 17.066667 38.4 53.333333 61.866667 93.866666 61.866666 36.266667 0 68.266667-17.066667 87.466667-46.933333h245.333333c19.2 29.866667 51.2 46.933333 87.466667 46.933333H682.666667l-8.533334-14.933333c-10.666667-17.066667-21.333333-32-29.866666-46.933333z" p-id="12696"></path><path d="M763.733333 435.2c-38.4 0-70.4 32-70.4 70.4 0 38.4 32 70.4 70.4 70.4 19.2 0 38.4-6.4 51.2-21.333333 12.8-12.8 21.333333-32 21.333334-49.066667-2.133333-38.4-34.133333-70.4-72.533334-70.4z m-230.4 128l-2.133333-6.4H217.6v2.133333c-4.266667 2.133333-6.4 8.533333-6.4 12.8V597.333333c0 8.533333 6.4 17.066667 17.066667 17.066667h330.666666l-6.4-12.8c-8.533333-10.666667-14.933333-23.466667-19.2-38.4z" p-id="12697"></path></svg>