<?xml version="1.0" standalone="no"?><!DOCTYPE svg PUBLIC "-//W3C//DTD SVG 1.1//EN" "http://www.w3.org/Graphics/SVG/1.1/DTD/svg11.dtd"><svg t="1648000204270" class="icon" viewBox="0 0 1024 1024" version="1.1" xmlns="http://www.w3.org/2000/svg" p-id="1774" xmlns:xlink="http://www.w3.org/1999/xlink" width="200" height="200"><defs><style type="text/css">@font-face { font-family: feedback-iconfont; src: url("//at.alicdn.com/t/font_1031158_u69w8yhxdu.woff2?t=1630033759944") format("woff2"), url("//at.alicdn.com/t/font_1031158_u69w8yhxdu.woff?t=1630033759944") format("woff"), url("//at.alicdn.com/t/font_1031158_u69w8yhxdu.ttf?t=1630033759944") format("truetype"); }
</style></defs><path d="M370.182552 306.669518 99.547739 306.669518c-19.581987 0-35.453467-15.870456-35.453467-35.453467s15.871479-35.453467 35.453467-35.453467l270.634814 0c19.581987 0 35.453467 15.870456 35.453467 35.453467S389.76454 306.669518 370.182552 306.669518z" p-id="1775"></path><path d="M827.526745 884.636952 99.547739 884.636952c-19.581987 0-35.453467-15.871479-35.453467-35.453467 0-19.583011 15.871479-35.453467 35.453467-35.453467l727.977983 0c19.581987 0 35.453467 15.871479 35.453467 35.453467C862.979188 868.766496 847.107709 884.636952 827.526745 884.636952z" p-id="1776"></path><path d="M398.544507 595.638909 99.547739 595.638909c-19.581987 0-35.453467-15.870456-35.453467-35.453467s15.871479-35.453467 35.453467-35.453467l298.996768 0c19.583011 0 35.453467 15.870456 35.453467 35.453467S418.126494 595.638909 398.544507 595.638909z" p-id="1777"></path><path d="M657.198451 614.5844c-63.46852 0-123.143645-24.720008-168.014598-69.604264-44.883233-44.86993-69.604264-104.530728-69.604264-168.000272 0-63.469544 24.720008-123.143645 69.604264-168.027901 44.870953-44.884256 104.559381-69.589938 168.014598-69.589938 63.469544 0 123.144668 24.706705 168.027901 69.576635 44.884256 44.897559 69.604264 104.572684 69.604264 168.042227 0 63.46852-24.718985 123.130342-69.604264 168.000272C780.343119 589.864392 720.669018 614.5844 657.198451 614.5844zM657.198451 210.267934c-44.524053 0-86.388533 17.3389-117.880781 48.817846-31.491225 31.492248-48.831148 73.357751-48.831148 117.895107 0 44.524053 17.3389 86.37523 48.831148 117.867478 31.492248 31.492248 73.357751 48.831148 117.880781 48.831148 44.537356 0 86.389556-17.337877 117.895107-48.831148 31.478945-31.492248 48.831148-73.343425 48.831148-117.867478 0-44.537356-17.352203-86.402859-48.844451-117.895107C743.602334 227.606835 701.73683 210.267934 657.198451 210.267934z" p-id="1778"></path><path d="M924.481937 712.579271c-10.56666 0-21.022803-4.694929-28.001751-13.682627L776.188496 544.314986c-12.020778-15.454994-9.236362-37.72316 6.217608-49.743938 15.456017-12.035104 37.724183-9.251711 49.759287 6.204305l120.263038 154.580634c12.020778 15.456017 9.250688 37.724183-6.204305 49.744961C939.756829 710.141756 932.084079 712.579271 924.481937 712.579271z" p-id="1779"></path></svg>